<?xml version="1.0" encoding="utf-8"?>
<!-- Generator: Adobe Illustrator 21.0.2, SVG Export Plug-In . SVG Version: 6.00 Build 0)  -->
<svg version="1.1" id="Layer_1" xmlns="http://www.w3.org/2000/svg" xmlns:xlink="http://www.w3.org/1999/xlink" x="0px" y="0px"
	 viewBox="0 0 447 165" style="enable-background:new 0 0 447 165;" xml:space="preserve">
<style type="text/css">
	.st0{fill:#386FA4;}
	.st1{font-family:'Roboto-Medium';}
	.st2{font-size:46.3234px;}
</style>
<path id="path-1" class="st0" d="M23.2,49.4V23.7H15v78.6h8.2V49.7C23.2,49.6,23.2,49.5,23.2,49.4L23.2,49.4z M75.7,31.1L54.8,56.2
	L33.7,31v15.6l21,25.1l21-25.1V31.1L75.7,31.1z M251.6,31.2l-20.9,25.1l-21.2-25.2v15.6l21,25.1l21-25.1V31.2L251.6,31.2z
	 M86.2,23.7v31.7c0,0,0,0.1,0,0.1v46.7h8.2V23.7H86.2L86.2,23.7z M138.6,23.7h8.2v78.6h-8.2V23.7L138.6,23.7z M199.1,23.7h-8.2v78.6
	h8.2V34h0V23.7L199.1,23.7z M262.1,23.7V34h0.1v68.3h8.2V23.7H262.1L262.1,23.7z M314.5,23.7h8.2v78.6h-8.2V23.7L314.5,23.7z
	 M399.6,106.8l-19.5-11L361,84.7l0.1-44l19-11l20-10.7l19.5,10.8L437,40l-4.1,6.7l-17.3-10.3L400,27.9l-16.1,8.6L369,45.1l0,35.1
	l15.2,8.8l15.4,8.7l14.9-8.5l18.2-9.9l3.9,6.8l-18.2,9.9L399.6,106.8L399.6,106.8z"/>
<text transform="matrix(1 0 0 1 195.4902 149.4453)" class="st0 st1 st2">pro</text>
<rect x="135" y="137" class="st0" width="54" height="2"/>
<rect x="270" y="137" class="st0" width="54" height="2"/>
</svg>
