<svg id="svg2" xmlns="http://www.w3.org/2000/svg" viewBox="0 0 1071.15 234.24"><defs><style>.cls-1{fill:#fff;}</style></defs><title>stukent</title><g id="g10"><g id="g12"><path id="path14" class="cls-1" d="M518.13,151.32v44.93H483.6V0h34.53V124.68H549.3l31.15-43.76h34.93l-35.72,57.67,59.47,95.65H604.19L549.5,151.32H518.13" transform="translate(0 0)"/><path id="path16" class="cls-1" d="M189,107.17h47.64v89.08H271.2V107.17h49.62V80.92H189v26.25" transform="translate(0 0)"/><path id="path18" class="cls-1" d="M433.37,151.72c0,6.23-1.31,10.87-4,13.91S421,170,411.73,170H392.28q-12.51,0-16.87-4.68T371,151.72V80.92H336.12V163q.19,15.72,10.91,24.46t30,8.75h50.83q23.21,0,31.75-8.54T468.11,163V80.92H433.37v70.79" transform="translate(0 0)"/><path id="path20" class="cls-1" d="M647.64,83A31.54,31.54,0,0,0,635,89.17a22.83,22.83,0,0,0-6.85,10.34,46.63,46.63,0,0,0-2.09,14.61V163a46.62,46.62,0,0,0,2.09,14.63A22.74,22.74,0,0,0,635,188a31.64,31.64,0,0,0,12.6,6.17A77.06,77.06,0,0,0,667,196.24H758.1V170H682.27a37.71,37.71,0,0,1-10.42-1.2,15.74,15.74,0,0,1-6.55-3.58,12.81,12.81,0,0,1-3.47-5.87,29.3,29.3,0,0,1-1-8H758.1V125.07H660.84a25.67,25.67,0,0,1,1-7.46,12.94,12.94,0,0,1,3.47-5.67,15.69,15.69,0,0,1,6.55-3.58,37.75,37.75,0,0,1,10.42-1.19H758.1V80.92H667A76.54,76.54,0,0,0,647.64,83" transform="translate(0 0)"/><path id="path22" class="cls-1" d="M865.1,80.92H814.28q-19.27,0-30,8.74t-10.92,24.46v82.12h34.94V125.46q0-9,4.36-13.63t16.87-4.67H849c9.24,0,15.14,1.46,17.65,4.38s4,7.69,4,13.92v70.78H905.4V114.12q0-16.11-8.53-24.66T865.1,80.92" transform="translate(0 0)"/><path id="path24" class="cls-1" d="M160,146.53,73.7,113.92c-.53,0-.86-.79-1-2.38.14-2.39,1.32-3.59,3.58-3.59h97.27v-27H76.28c-9.8,0-18.3,1.43-25.21,5-15.23,7.79-15.69,24.06-15.69,28.84q0,15.32,14.5,20.27l77.81,28.84c.79.27,1.51,1.39,2.18,3.39a2.16,2.16,0,0,1,.2,1q0,1.8-3.58,1.79H0a127.86,127.86,0,0,0,11.86,26.24H145.36q12.7,0,19.46-6.75,6.94-7,8.73-14.52a7,7,0,0,0,.2-1.59v-1.79a39.64,39.64,0,0,0-2.38-12.73A18,18,0,0,0,160,146.53" transform="translate(0 0)"/><path id="path26" class="cls-1" d="M1071.15,107.29a128.55,128.55,0,0,0-7.9-26.18H909l10.09,26.18h49.42v89h34.52v-89h68.1" transform="translate(0 0)"/></g></g></svg>