<?xml version="1.0" encoding="utf-8"?>
<!-- Generator: Adobe Illustrator 21.0.2, SVG Export Plug-In . SVG Version: 6.00 Build 0)  -->
<svg version="1.1" id="Layer_1" xmlns="http://www.w3.org/2000/svg" xmlns:xlink="http://www.w3.org/1999/xlink" x="0px" y="0px"
	 viewBox="0 0 467 494" style="enable-background:new 0 0 467 494;" xml:space="preserve">
<style type="text/css">
	.st0{fill:#FFFFFF;}
	.st1{fill:none;stroke:#FFFFFF;stroke-width:8;stroke-miterlimit:10;}
	.st2{font-family:'Sansation-Light';}
	.st3{font-size:34.0159px;}
	.st4{fill:none;stroke:#FFFFFF;}
	.st5{fill:none;stroke:#FFFFFF;stroke-width:13;stroke-miterlimit:10;}
</style>
<g>
	<path class="st0" d="M31.3,384.9v-26.4h-8.2v80.8h8.2v-54C31.3,385.1,31.3,385,31.3,384.9"/>
	<polygon class="st0" points="84.1,357.1 63.1,382.9 41.8,357 41.8,373 62.9,398.8 84.1,373 	"/>
	<polygon class="st0" points="260.5,357.1 239.6,383 218.3,357 218.3,373 239.4,398.9 260.5,373.1 	"/>
	<path class="st0" d="M94.6,358.4v32.6c0,0,0,0.1,0,0.1v48.1h8.2v-80.8H94.6z"/>
	<rect x="147.1" y="358.4" class="st0" width="8.2" height="80.8"/>
	<polygon class="st0" points="207.8,358.4 199.6,358.4 199.6,439.3 207.8,439.3 207.8,369.1 207.8,369.1 	"/>
	<polygon class="st0" points="271,358.4 271,369.1 271.1,369.1 271.1,439.3 279.3,439.3 279.3,358.4 	"/>
	<rect x="323.6" y="358.4" class="st0" width="8.2" height="80.8"/>
	<polyline class="st1" points="444.2,419.2 425.9,429.4 408.9,439.3 391.4,429.1 374.3,418.9 374.3,397.9 374.3,378.2 391.3,368.1 
		409.4,358.2 427,368.1 444.4,378.7 	"/>
	<text transform="matrix(1 0 0 1 214.8458 475.6373)" class="st0 st2 st3">pro</text>
	<line class="st4" x1="196.6" y1="465.6" x2="23.1" y2="465.6"/>
	<line class="st4" x1="445.9" y1="465.6" x2="285.8" y2="465.6"/>
	<g>
		<g>
			<polygon class="st0" points="268.3,123.6 239.5,159.1 210.4,123.5 210.4,145.5 239.4,180.2 268.3,145.5 			"/>
			<path class="st0" d="M280.2,122.8v44.8c0,0.1,0,0.1,0,0.2v65.9h11.3V122.8H280.2z"/>
			<path class="st0" d="M187.3,122.8v44.8c0,0.1,0,0.1,0,0.2v65.9h11.3V122.8H187.3z"/>
		</g>
		<polygon class="st5" points="374.3,256.2 239.4,334.1 104.4,256.2 104.4,100.3 239.4,22.4 374.3,100.3 		"/>
	</g>
</g>
</svg>
