<?xml version="1.0" encoding="utf-8"?>
<!-- Generator: Adobe Illustrator 21.0.2, SVG Export Plug-In . SVG Version: 6.00 Build 0)  -->
<svg version="1.1" id="Layer_1" xmlns="http://www.w3.org/2000/svg" xmlns:xlink="http://www.w3.org/1999/xlink" x="0px" y="0px"
	 viewBox="0 0 459 148" style="enable-background:new 0 0 459 148;" xml:space="preserve">
<style type="text/css">
	.st0{fill:none;stroke:#000000;stroke-width:8;stroke-miterlimit:10;}
	.st1{font-family:'Sansation-Light';}
	.st2{font-size:34.0159px;}
	.st3{fill:none;stroke:#000000;}
</style>
<path d="M27.3,40.2V13.8h-8.2v80.8h8.2v-54C27.3,40.5,27.3,40.4,27.3,40.2"/>
<polygon points="80.1,12.4 59.1,38.3 37.8,12.3 37.8,28.3 58.9,54.2 80.1,28.4 "/>
<polygon points="256.5,12.5 235.6,38.3 214.3,12.4 214.3,28.4 235.4,54.2 256.5,28.4 "/>
<path d="M90.6,13.8v32.6c0,0,0,0.1,0,0.1v48.1h8.2V13.8H90.6z"/>
<rect x="143.1" y="13.8" width="8.2" height="80.8"/>
<polygon points="203.8,13.8 195.6,13.8 195.6,94.6 203.8,94.6 203.8,24.4 203.8,24.4 "/>
<polygon points="267,13.8 267,24.4 267.1,24.4 267.1,94.6 275.3,94.6 275.3,13.8 "/>
<rect x="319.6" y="13.8" width="8.2" height="80.8"/>
<polyline class="st0" points="440.2,74.6 421.9,84.7 404.9,94.6 387.4,84.5 370.3,74.2 370.3,53.3 370.3,33.5 387.3,23.5 
	405.4,13.5 423,23.4 440.4,34 "/>
<text transform="matrix(1 0 0 1 210.8458 131.0095)" class="st1 st2">pro</text>
<line class="st3" x1="192.6" y1="121" x2="19.1" y2="121"/>
<line class="st3" x1="441.9" y1="121" x2="281.8" y2="121"/>
</svg>
