<?xml version="1.0" encoding="utf-8"?>
<!-- Generator: Adobe Illustrator 21.0.2, SVG Export Plug-In . SVG Version: 6.00 Build 0)  -->
<svg version="1.1" id="Layer_1" xmlns="http://www.w3.org/2000/svg" xmlns:xlink="http://www.w3.org/1999/xlink" x="0px" y="0px"
	 viewBox="0 0 660 212" style="enable-background:new 0 0 660 212;" xml:space="preserve">
<style type="text/css">
	.st0{fill:#354856;}
	.st1{fill:none;stroke:#354856;stroke-width:8;stroke-miterlimit:10;}
	.st2{fill:none;stroke:#354856;}
	.st3{fill:#FFFFFF;}
	.st4{fill:none;stroke:#FFFFFF;stroke-width:8;stroke-miterlimit:10;}
	.st5{font-family:'Sansation-Light';}
	.st6{font-size:50.0461px;}
	.st7{fill:#FFFFFF;stroke:#FFFFFF;}
</style>
<path class="st0" d="M-1016.6,1285.7v-26.4h-8.2v80.8h8.2v-54C-1016.5,1285.9-1016.6,1285.8-1016.6,1285.7"/>
<polygon class="st0" points="-963.8,1257.9 -984.8,1283.7 -1006,1257.8 -1006,1273.8 -984.9,1299.6 -963.8,1273.8 "/>
<polygon class="st0" points="-787.3,1257.9 -808.3,1283.8 -829.6,1257.8 -829.6,1273.8 -808.5,1299.7 -787.3,1273.9 "/>
<path class="st0" d="M-953.3,1259.2v32.6c0,0,0,0.1,0,0.1v48.1h8.2v-80.8H-953.3z"/>
<rect x="-900.8" y="1259.2" class="st0" width="8.2" height="80.8"/>
<polygon class="st0" points="-840,1259.2 -848.3,1259.2 -848.3,1340.1 -840,1340.1 -840,1269.9 -840,1269.9 "/>
<polygon class="st0" points="-776.9,1259.2 -776.9,1269.9 -776.8,1269.9 -776.8,1340.1 -768.6,1340.1 -768.6,1259.2 "/>
<rect x="-724.3" y="1259.2" class="st0" width="8.2" height="80.8"/>
<polyline class="st1" points="-603.7,1320 -621.9,1330.2 -638.9,1340.1 -656.4,1329.9 -673.6,1319.7 -673.6,1298.7 -673.6,1279 
	-656.6,1268.9 -638.4,1259 -620.9,1268.9 -603.5,1279.5 "/>
<text transform="matrix(1 0 0 1 -833.0303 1376.438)" class="st0 st5" style="font-size:34.0159px;">pro</text>
<line class="st2" x1="-851.3" y1="1366.4" x2="-1024.8" y2="1366.4"/>
<line class="st2" x1="-602" y1="1366.4" x2="-762.1" y2="1366.4"/>
<path class="st3" d="M32,53.5V14.6H20v118.9h12.1V54C32.1,53.8,32,53.7,32,53.5"/>
<polygon class="st3" points="109.7,12.6 78.8,50.6 47.5,12.4 47.5,36 78.6,74 109.7,36 "/>
<polygon class="st3" points="369.3,12.7 338.4,50.7 307.2,12.5 307.2,36.1 338.2,74.1 369.3,36.1 "/>
<path class="st3" d="M125.2,14.6v48c0,0.1,0,0.1,0,0.2v70.7h12.1V14.6H125.2z"/>
<rect x="202.4" y="14.6" class="st3" width="12.1" height="118.9"/>
<polygon class="st3" points="291.8,14.6 279.7,14.6 279.7,133.5 291.8,133.5 291.8,30.2 291.8,30.2 "/>
<polygon class="st3" points="384.7,14.6 384.7,30.2 384.8,30.2 384.8,133.5 396.9,133.5 396.9,14.6 "/>
<rect x="462.1" y="14.6" class="st3" width="12.1" height="118.9"/>
<polyline class="st4" points="639.5,104 612.7,118.9 587.6,133.5 561.9,118.6 536.6,103.5 536.6,72.6 536.7,43.6 561.7,28.8 
	588.4,14.2 614.2,28.8 639.9,44.4 "/>
<text transform="matrix(1 0 0 1 302.0845 187.041)" class="st3 st5 st6">pro</text>
<line class="st7" x1="275.2" y1="172.3" x2="20" y2="172.3"/>
<line class="st7" x1="642" y1="172.3" x2="406.5" y2="172.3"/>
</svg>
