<?xml version="1.0" encoding="utf-8"?>
<!-- Generator: Adobe Illustrator 21.0.2, SVG Export Plug-In . SVG Version: 6.00 Build 0)  -->
<svg version="1.1" id="Layer_1" xmlns="http://www.w3.org/2000/svg" xmlns:xlink="http://www.w3.org/1999/xlink" x="0px" y="0px"
	 viewBox="0 0 413 457" style="enable-background:new 0 0 413 457;" xml:space="preserve">
<style type="text/css">
	.st0{fill:#FFFFFF;}
</style>
<path class="st0" d="M204.9,8L15.4,117.5v218.9l189.6,109.5l189.6-109.5V117.5L204.9,8z M375.1,325.2l-170.2,98.3L34.8,325.2V128.7
	l170.2-98.2l170.2,98.2V325.2z"/>
<g>
	<polygon class="st0" points="246.7,150.4 207.1,199.1 167.1,150.2 167.1,180.4 206.9,228.2 246.7,180.5 	"/>
	<path class="st0" d="M263,149.2v61.6c0,0.1,0,0.2,0,0.2v90.6h15.5V149.2H263z"/>
	<path class="st0" d="M135.3,149.2v61.6c0,0.1,0,0.2,0,0.2v90.6h15.5V149.2H135.3z"/>
</g>
</svg>
