<svg xmlns="http://www.w3.org/2000/svg" version="1.1" width="600px" height="600px" xlink="http://www.w3.org/1999/xlink" style="overflow:hidden!important;"><g id="svga-group-wrapper" transform="scale(3 3)"><g id="svga-group-backs-single"><path id="SvgjsPath7662" d="M225,225H-25V-25h250V225z" fill="#ecf0f1" stroke-width="none" opacity="1"></path><path id="SvgjsPath7663" d="M55.036,79.068h-29v-26h29V79.068z M84.203,33H43.536v33.068h40.667V33z M63.869,99.999H100V56.401H63.869V99.999z M76.869,95.734H40.536v31.333h36.333V95.734z M175.536,13.401H126v56.667h49.536V13.401z M119.536,39.068h-12v14h12V39.068z M155.818-4.266h-48.282v28.667h48.282V-4.266z M100,5.734H74v36h26V5.734z M40.536,8.401h-14.5v15.333h14.5V8.401z M21.171,33H-1.246v34.434h22.417V33z M47.536,99.999H8.203v43.735h39.333V99.999z M26.036,173.734h44.167v-26H26.036V173.734z M131.536,163.734H100.5v22.667h31.037V163.734z M206.792,141.067h-28.718v34h28.718V141.067z M159.536,156.491h-24.667v22.667h24.667V156.491z M183.178,111.733h-35.975v40.668h35.975V111.733z M192.202,181.734h-44.999v29.333h44.999V181.734z M43.536,163.734H-5.262v44h48.797V163.734z M202.869,53.068h-33.166v26h33.166V53.068z M183.178,90.401h-14.359v14.835h14.359V90.401z M-5.262,118h27.339V79.299H-5.262V118z M33.493-5.599l-49.291,1.333V33h49.291V-5.599z M211.536-4.266h-32v40.667h32V-4.266z M61-8.266H47.536v29.333H61V-8.266z M208.869,97.818h-32.871v26.667h32.871V97.818z" fill="#c6dce2" stroke="#f9f9f9" stroke-width="0.5" opacity="1"></path></g><g id="svga-group-subwrapper" transform="translate(2 -1.6365788271696354e-16)"><g id="svga-group-hair-back" transform="rotate(3.0000001 100 150)"><path id="SvgjsPath7390" d="M156.79,87.186c1.245-4.645,2.08-9.934,2.312-14.214h11.529c1.834,3.925,2.658,6.08,3.9,7.933c-1.84-0.72-3.965-1.467-7.809-4.972c0.318,0.854,4.324,12.487,4.587,14.493c-3.391-2.793-4.635-5.812-6.713-8.063c1.206,8.371,1.873,12.796-2.654,23.504C159.181,90.365,157.449,87.622,156.79,87.186zM34.506,74.599c-0.217,8.956-2.898,15.556-12.347,23.446c2.96-0.94,5.61-2.43,10.271-5.06c0.8-2.13,1.51-4.561,1.79-6.8c-0.82,7.9-5.598,13.347-1.274,22.677c0.606-7.783,3.254-13.309,10.093-17.755c-0.216,0.149-0.716,0.513-1.372,1.089c0.747-0.612,1.527-1.188,2.333-1.728c-1.567-4.835-2.861-12.029-2.909-15.869H34.506z M33.478,81.232c-1.485-1.845-2.84-4.664-3.422-6.633h4.441C34.344,75.986,34.038,79.067,33.478,81.232z" fill="#a92d1c" stroke-width="none" opacity="1"></path><path id="SvgjsPath7391" d="M173.749,80.275c-1.258-1.878-2.29-4.05-3.289-6.204h1.082c1.02,2.248,2.179,5.013,3.497,7.194c-3.51-1.04-5.28-2.09-7.91-4.72c3.17,7.87,3.66,11.71,5.19,14.94c-4.49-2.72-5.15-6.06-7.49-8.73c1.51,7.79,2.98,13.92-3.43,25.09c0-6.07-1.29-13.851-3.55-19.8c3.289,3.15,3.819,13.52,4.079,17.08c1.011-2.39,1.851-4.84,2.511-7.37c1.75-6.68,0.18-12.78-0.15-15.8c1.913,1.238,4.051,5.872,6.9,8.22c-1.801-4.38-2-6.61-5.399-15.54C168.6,77.325,171.119,79.245,173.749,80.275z M32.749,108.115c-3.38-8.12,0.65-14.03,1.47-21.93c-0.28,2.24-1.09,4.37-1.89,6.5c-4.66,2.63-6.61,4.12-9.57,5.06c9.449-7.89,11.529-13.99,11.747-22.946h-0.108c-0.153,1.387-0.459,3.801-1.019,5.966c-1.485-1.845-2.559-4.216-3.141-6.185l-1.204,0.011c0.695,2.252,2.058,4.925,4.075,7.094c-1.63,6.99-6.84,12.3-12.02,16.88c3.33-0.1,7.88-2.78,10.79-4.66c-2.09,5.7-2.23,10.66,1.77,17.57c-0.246-10.686,5.281-16.878,8.017-19.28c0.656-0.576,1.156-0.94,1.372-1.089C36.199,95.554,33.355,100.333,32.749,108.115z" fill="#8a1000" stroke-width="none" opacity="1"></path></g><g id="svga-group-humanbody-single"><path id="SvgjsPath6421" d="M190.858 199.866c-6.008-10.158-13.474-11.973-19.628-13.936 -6.323-2.016-19.346-3.178-26.449-4.6 -6.86-1.373-23.153-5.789-23.339-13.488 -0.192-8.066 4.291-40.09 4.291-40.09H74.005c0 0 4.487 32.023 4.294 40.09 -0.184 7.699-16.48 12.115-23.341 13.488 -7.104 1.422-20.125 2.584-26.448 4.6 -6.156 1.963-13.624 3.777-19.632 13.936 -3.644 6.16-6.008 16.133-6.008 27.133h194C196.869 215.999 194.509 206.026 190.858 199.866z" fill="#f3d4cf" stroke-width="none" opacity="1" stroke="none"></path><path id="SvgjsPath6422" d="M121.442 167.843c2.495 10.929 18.165 13.698 26.293 15.325 21.909 4.379 33.772 5.134 42.297 19.539 2.903 4.916 5.459 15.864 5.962 24.153 1.835 0.291 0.531-17.432-5.136-26.994 -9.742-16.472-29.089-15.135-46.077-18.535C137.921 179.958 121.628 175.542 121.442 167.843L121.442 167.843zM78.558 167.843c-0.186 7.699-16.479 12.115-23.339 13.488 -16.988 3.4-36.335 2.063-46.077 18.535 -5.667 9.563-6.971 27.285-5.136 26.994 0.503-8.289 3.059-19.237 5.962-24.153 8.524-14.405 20.388-15.16 42.297-19.539C60.393 181.541 76.063 178.771 78.558 167.843L78.558 167.843z" fill="#fff4f3" stroke-width="none" opacity="1" stroke="none"></path><path id="SvgjsPath6423" d="M51.206 189.513c0 0 28.641 0.299 33.473 1.885 2.314 0.758 8.372 5.633 8.372 5.633s-6.556-3.17-8.658-3.758C79.51 191.909 51.206 189.513 51.206 189.513zM99.795 199.999c2.053-0.041 7.887-3.799 7.887-3.799s-5.574 2.059-7.342 2.16c-1.491 0.086-6.366-1.238-6.366-1.238S98.112 200.032 99.795 199.999zM117.008 192.757c6.75-1.818 29.786-3.23 29.786-3.23s-23.791-0.516-30.51 1.725c-2.252 0.752-7.562 5.16-7.562 5.16S114.786 193.354 117.008 192.757z" fill="#e4b3ab" stroke-width="none" opacity="1" stroke="none"></path><path id="SvgjsPath6424" d="M190.858 199.866c-9.741-16.471-29.122-15.142-46.077-18.535 -6.86-1.373-23.153-5.789-23.339-13.488 -0.192-8.066 4.291-40.09 4.291-40.09H74.005c0 0 4.487 32.023 4.294 40.09 -0.184 7.699-16.48 12.115-23.341 13.488 -7.104 1.422-20.125 2.584-26.448 4.6 -6.156 1.963-13.624 3.777-19.632 13.936 -3.644 6.16-6.008 16.133-6.008 27.133h194C196.869 215.999 194.509 206.026 190.858 199.866z" fill="none" stroke="#c5796d" stroke-width="1.5" opacity="1"></path></g><g id="svga-group-chinshadow-single"><path id="SvgjsPath7403" d="M74.767 128.517c0.63 4.561 3.424 25.109 4.058 35.365 4.747 3.863 11.162 7.168 21.177 7.121 9.822 0.046 16.18-3.132 20.899-6.899 0.607-10.183 3.436-30.995 4.069-35.587l0.017-0.113H74.751L74.767 128.517z" fill="url(#SvgjsLinearGradient7404)" opacity="1"></path></g><g id="svga-group-clothes-single" ><path id="SvgjsPath7647" d="M43.52 224.812c-25.518 0-39.538-0.228-41.685-0.677l-0.006-0.106c-1.693-26.63 13.847-40.759 47.508-43.193 12.458 7.729 32.47 11.655 59.42 11.655 28.606 0 56.588-4.536 67.29-6.486 15.393 8.005 21.154 18.146 21.173 37.391 -3.973 0.296-97.133 1.417-153.692 1.417C43.524 224.812 43.523 224.812 43.52 224.812z" fill="#653220" stroke-width="none" opacity="1"></path><path id="SvgjsPath7648" d="M197.22 223.395c0 0 0.123-29.332-29.542-35.087 4.5-0.689 5.727-1.822 8.369-2.304C191.439 194.009 197.201 204.15 197.22 223.395zM149.079 189.982c-28.224 3.263-75.592 5.834-99.743-9.147 -29.679 2.148-49.28 13.477-47.501 43.3 0.125 0.026 0.294 0.052 0.5 0.076 1.263-17.184 6.809-23.152 16.483-29.703 3.413 4.323 5.416 12.663 5.416 18.717 0-8.584 0.171-12.44-1.001-21.023 9.145-5.108 19.212-6.182 28.034-7.614C80.659 198.762 128.615 197.274 149.079 189.982z" fill="#744230" stroke-width="none" opacity="1"></path><path id="SvgjsPath7649" d="M37.72 183.39c27.476 18.844 85.402 17.577 118.296 13.195C164.233 195.185 78.922 212.784 37.72 183.39z" fill="#562413" stroke-width="none" opacity="1"></path><path id="SvgjsPath7650" d="M176.029 185.905c-34.551 6.296-97.805 12.705-126.7-5.17 -30.352 2.195-49.475 13.813-47.6 43.3 0 0.061 0.01 0.12 0.01 0.181 7.252 1.769 192.442-0.348 195.58-0.73C197.319 205.35 192.637 194.517 176.029 185.905zM1.869 224.035c0-15.576 5.009-27.341 17.333-33.974 1.613 2.277 3.151 8.374 3.471 9.014 0 0-0.755-7.2-2.224-9.776 3.821-2.025 8.463-4.228 17.2-6.094 25.036 18.93 93.373 20.543 130.85 10.5 -0.01 0-0.03 0.011-0.06 0.011 -30.759 8.372-103.456 7.688-130.41-10.591 1.55-0.478 9.214-1.622 11.12-1.89 41.865 26.274 125.692 5.373 126.692 5.373 15.153 8.502 20.633 18.511 21.219 36.707C128.054 221.169 39.365 224.866 1.869 224.035z" fill="#370f01" stroke-width="none" opacity="1"></path></g><g id="svga-group-head" transform="rotate(3.0000001 100 150)"><g id="svga-group-ears-left" transform="translate(0 1)"><path id="SvgjsPath7562" d="M46.778 83.745c-2.623-1.422-8.575-8.182-11.138-7.219 -1.655 0.62-2.377 5.286-2.638 7.174 -0.333 2.425-0.929 7.405-0.328 9.781 0.725 2.866 3.631 8.169 5.37 10.589 1.468 2.039 5.211 5.568 6.407 7.769 0.759 1.396 1.493 5.159 4.083 4.916 1.674-0.157 5.537-2.95 5.744-4.274C55.406 105.296 51.943 86.543 46.778 83.745z" fill="#f3d4cf" stroke="#c5796d" stroke-width="1.5" opacity="1"></path><path id="SvgjsPath7563" d="M43.313 99.25c-0.125-0.534 0.006-1.432 0.133-2.3 0.115-0.791 0.224-1.538 0.158-2.066 -0.251-1.978-1.66-5.737-2.578-7.775 -1.059-2.343-2.771-5.296-4.919-6.057 -0.888-0.316-1.473 0.061-1.813 0.443 -0.248 0.281-0.305 0.61-0.223 0.649 0.082 0.039 0.266-0.234 0.535-0.491 0.219-0.21 0.542-0.391 0.983-0.354 -0.178 0.985-1.091 6.32-0.696 9.957 0.311 2.86 1.489 4.996 1.673 5.316 0.028 0.337 0.073 0.667 0.139 0.987 0.869 4.175 4.648 8.921 5.963 10.476 0.243 0.285 0.496 0.456 0.56 0.388 0.062-0.07-0.087-0.354-0.33-0.642 -1.298-1.545-5.042-6.274-5.879-10.302 -0.89-4.273 2.167-10.609 2.849-11.949 0.348 0.629 0.643 1.234 0.87 1.737 0.179 0.396 0.378 0.858 0.581 1.358 -0.402 0.699-3.211 5.802-2.187 9.886 0.38 1.505 2.088 3.447 3.223 3.979 0.624 0.293 0.859 0.731 1.13 1.237 0.314 0.589 0.673 1.255 1.708 1.738 0.211 0.097 0.402 0.138 0.571 0.138 0.293 0 0.515-0.122 0.679-0.271 0.017 0.258 0.016 0.588 0.007 0.893 -0.01 0.395 0.041 0.717 0.129 0.725s0.182-0.305 0.192-0.696c0.016-0.483 0.013-1.081-0.067-1.367 -0.232-0.842-0.942-1.792-1.694-2.798C44.27 101.098 43.504 100.074 43.313 99.25zM36.538 95.548c-2.035-6.554 0-12.573 0.458-13.472 0.795 0.754 2.108 2.125 2.679 3.111C39.258 85.976 36.623 91.14 36.538 95.548zM45.318 105.137c-0.938-0.438-1.253-1.024-1.557-1.591 -0.275-0.514-0.56-1.044-1.281-1.383 -0.157-0.074-0.33-0.186-0.505-0.314 -2.324-5.75 0.254-8.264 0.899-8.779 0.199 0.703 0.346 1.348 0.411 1.865 0.061 0.475-0.05 1.229-0.156 1.959 -0.132 0.904-0.268 1.839-0.127 2.445 0.211 0.902 0.999 1.957 1.76 2.977 0.677 0.905 1.373 1.839 1.609 2.601C46.271 105.067 45.949 105.43 45.318 105.137z" fill="#c5796d" stroke-width="none" opacity="1"></path></g><g id="svga-group-ears-right" transform="translate(0 1)"><path id="SvgjsPath7564" d="M152.961 83.745c2.623-1.422 8.574-8.182 11.137-7.219 1.656 0.62 2.379 5.286 2.639 7.174 0.334 2.425 0.928 7.405 0.328 9.781 -0.725 2.866-3.631 8.169-5.371 10.589 -1.467 2.039-5.211 5.568-6.406 7.769 -0.76 1.396-1.492 5.159-4.084 4.916 -1.674-0.157-5.535-2.95-5.744-4.274C144.332 105.296 147.795 86.543 152.961 83.745z" fill="#f3d4cf" stroke="#c5796d" stroke-width="1.5" opacity="1"></path><path id="SvgjsPath7565" d="M154.729 102.088c-0.752 1.006-1.463 1.957-1.695 2.798 -0.078 0.286-0.082 0.884-0.066 1.367 0.012 0.392 0.105 0.704 0.193 0.696s0.139-0.33 0.129-0.725c-0.01-0.305-0.01-0.635 0.006-0.893 0.164 0.148 0.387 0.271 0.68 0.271 0.168 0 0.359-0.041 0.57-0.138 1.035-0.483 1.395-1.149 1.709-1.738 0.271-0.506 0.506-0.943 1.131-1.237 1.133-0.532 2.842-2.473 3.223-3.979 1.023-4.084-1.785-9.187-2.188-9.886 0.203-0.5 0.402-0.962 0.582-1.358 0.225-0.503 0.521-1.108 0.869-1.737 0.682 1.34 3.738 7.676 2.848 11.949 -0.838 4.028-4.582 8.757-5.879 10.302 -0.242 0.288-0.393 0.571-0.33 0.642 0.064 0.068 0.318-0.103 0.561-0.388 1.314-1.555 5.094-6.301 5.963-10.476 0.066-0.32 0.111-0.65 0.139-0.987 0.184-0.32 1.363-2.457 1.674-5.316 0.395-3.637-0.518-8.972-0.695-9.957 0.441-0.038 0.764 0.143 0.982 0.354 0.268 0.257 0.453 0.53 0.535 0.491 0.08-0.039 0.023-0.369-0.223-0.649 -0.342-0.382-0.926-0.759-1.813-0.443 -2.148 0.761-3.861 3.713-4.92 6.057 -0.92 2.038-2.326 5.797-2.578 7.775 -0.066 0.528 0.043 1.275 0.158 2.066 0.127 0.868 0.256 1.766 0.133 2.3C156.234 100.074 155.469 101.098 154.729 102.088zM160.064 85.187c0.57-0.986 1.883-2.357 2.678-3.111 0.457 0.899 2.494 6.918 0.459 13.472C163.115 91.14 160.48 85.976 160.064 85.187zM153.367 104.916c0.236-0.762 0.932-1.695 1.609-2.601 0.762-1.02 1.549-2.075 1.76-2.977 0.141-0.606 0.006-1.541-0.127-2.445 -0.105-0.73-0.217-1.485-0.156-1.959 0.066-0.517 0.213-1.162 0.412-1.865 0.645 0.515 3.223 3.029 0.898 8.779 -0.176 0.129-0.348 0.241-0.504 0.314 -0.723 0.339-1.008 0.869-1.281 1.383 -0.305 0.567-0.619 1.154-1.559 1.591C153.789 105.43 153.467 105.067 153.367 104.916z" fill="#c5796d" stroke-width="none" opacity="1"></path></g><g id="svga-group-faceshape-wrap" ><g id="svga-group-faceshape-single" ><path id="SvgjsPath7400" d="M100.002 0.867C66.384 0.919 39.082 28.09 39.134 61.564c0.009 5.316 0.704 10.471 2.002 15.382h0.001C41.15 77 51.427 107.873 54.086 120.29c2.38 11.116 12.959 20.132 17.72 25.046 5.47 5.649 12.307 14.008 28.197 13.934 15.889 0.074 22.727-8.284 28.197-13.934 4.761-4.914 15.34-13.93 17.72-25.046 2.659-12.417 12.937-43.291 12.947-43.344h0.002c1.298-4.911 1.994-10.066 2.002-15.382C160.923 28.09 133.62 0.919 100.002 0.867z" fill="#f3d4cf" stroke-width="none" opacity="1"></path><path id="SvgjsPath7401" d="M133.47 10.898c14.604 11.017 24.131 29.011 24.1 49.346 -0.008 5.315-0.664 10.471-1.892 15.382h-0.002c-0.011 0.053-9.73 30.925-12.246 43.342 -2.251 11.117-12.256 20.132-16.76 25.047 -5.173 5.649-11.64 14.008-26.667 13.934 -15.028 0.074-21.495-8.284-26.668-13.934 -4.502-4.915-14.508-13.93-16.759-25.047C54.06 106.552 44.34 75.68 44.329 75.626h-0.001c-1.228-4.911-1.885-10.066-1.893-15.382 -0.03-20.335 9.497-38.33 24.101-49.346 -16.522 10.863-27.433 29.499-27.4 50.666 0.009 5.316 0.704 10.471 2.002 15.382h0.001C41.15 77 51.427 107.873 54.086 120.29c2.38 11.116 12.959 20.132 17.72 25.046 5.47 5.649 12.307 14.008 28.197 13.934 15.889 0.074 22.727-8.284 28.197-13.934 4.761-4.914 15.34-13.93 17.72-25.046 2.659-12.417 12.937-43.291 12.947-43.344h0.002c1.298-4.911 1.994-10.066 2.002-15.382C160.903 40.398 149.992 21.762 133.47 10.898z" fill="#ebc3bd" stroke-width="none" opacity="1"></path><path id="SvgjsPath7402" d="M100.002 0.867C66.384 0.919 39.082 28.09 39.134 61.564c0.009 5.316 0.704 10.471 2.002 15.382h0.001C41.15 77 51.427 107.873 54.086 120.29c2.38 11.116 12.959 20.132 17.72 25.046 5.47 5.649 12.307 14.008 28.197 13.934 15.889 0.074 22.727-8.284 28.197-13.934 4.761-4.914 15.34-13.93 17.72-25.046 2.659-12.417 12.937-43.291 12.947-43.344h0.002c1.298-4.911 1.994-10.066 2.002-15.382C160.923 28.09 133.62 0.919 100.002 0.867z" fill="none" stroke="#c5796d" stroke-width="1.5" opacity="1"></path></g></g><g id="svga-group-mouth-single" ><path id="SvgjsPath7525" d="M99.867 141.087c-4.159 0-7.258-4.297-7.258-4.297 7.261 3.32 14.915 0 14.915 0S103.516 141.087 99.867 141.087z" fill="url(#SvgjsLinearGradient7526)" opacity="1"></path><path id="SvgjsPath7529" d="M112.127 131.943c0 0.625-7.773 3.456-12.258 3.575 -4.18 0.112-12.333-2.682-12.333-3.575 0-0.892 6.441-1.558 12.729-1.558C106.555 130.386 112.127 131.052 112.127 131.943z" fill="#ffffff" stroke-width="none" opacity="1"></path><path id="SvgjsPath7530" d="M95.441 127.853c0.99-0.131 2.728 0.908 4.824 0.909 1.541 0.002 3.426-1.067 4.612-0.909 2.529 0.341 3.857 1.882 10.491 2.47 0 0-3.22 1.083-4.075 1.15 -2.72 0.216-7.215-0.169-11.287-0.181 -4.556-0.02-8.941 0.43-11.697 0.301 -0.994-0.051-3.941-1.137-3.941-1.137C89.901 130.196 92.547 128.235 95.441 127.853zM84.369 130.818c0 0 4.514 3.538 6.253 4.76 2.007 1.411 5.029 3.623 9.474 3.557 3.563-0.058 6.641-1.816 8.477-2.986 1.978-1.259 6.796-5.463 6.796-5.463 -2.77 0.633-2.77 0.633-4.075 1.149 -2.741 1.084-7.477 2.722-11.173 2.722 -4.563 0-8.936-1.639-11.811-2.603C86.315 131.286 84.369 130.818 84.369 130.818z" fill="#f771a9" stroke="#e85391" stroke-width="0.75" opacity="1"></path><path id="SvgjsPath7531" d="M115.592 130.572c-0.458 0.663-2.14 0.715-2.888 0.977 -1.098 0.383-2.162 0.856-3.259 1.245 -2.693 0.954-5.51 1.792-8.375 1.98 -5.336 0.351-10.599-1.808-15.596-3.41 -0.424-0.136-0.994-0.175-1.359-0.449 -0.326-0.244-0.015-0.768 0.336-0.701 1.051 0.199 2.092 0.731 3.141 0.994 1.224 0.308 2.583 0.16 3.832 0.113 1.592-0.059 3.184-0.146 4.777-0.207 2.927-0.109 5.842-0.053 8.768 0.059 2.621 0.101 5.366 0.402 7.915-0.332 0.688-0.199 1.379-0.399 2.047-0.656C115.179 130.09 115.94 130.07 115.592 130.572 115.415 130.828 115.632 130.515 115.592 130.572zM108.39 131.773c-3.415 0.013-6.822-0.286-10.24-0.217 -1.874 0.038-3.745 0.139-5.617 0.219 -0.566 0.024-1.625-0.143-2.11 0.204 -0.466 0.334 1.182 0.807 1.325 0.852 3.306 1.039 6.829 1.78 10.304 1.346 1.704-0.214 3.382-0.632 5.023-1.13 0.64-0.195 1.439-0.341 1.987-0.743C109.635 131.883 108.656 131.773 108.39 131.773 107.333 131.777 109.492 131.771 108.39 131.773z" fill="#c92066" stroke-width="none" opacity="1"></path><path id="SvgjsPath7532" d="M99.901 138.136c-4.165 0-7.465-2.404-10.634-4.801 7.714 2.61 14.222 2.572 21.819-0.346C107.874 135.609 104.215 138.095 99.901 138.136zM93.601 130.478c5.567-0.262 11.102 0.228 16.657 0.047 -1.847-0.453-3.623-1.426-5.512-1.681 -1.452-0.142-2.984 0.918-4.481 0.918 -1.633-0.001-3.113-0.918-4.692-0.918 -2.024 0.27-3.923 1.229-5.881 1.771C90.996 130.593 92.299 130.547 93.601 130.478 95.469 130.39 92.18 130.543 93.601 130.478z" fill="#ff8ebd" stroke-width="none" opacity="1"></path><path id="SvgjsPath7533" d="M95.134 136.031c1.596 0.319 3.265 0.525 4.987 0.525 1.453 0 3.029-0.222 4.598-0.563 -1.384 0.624-2.973 1.132-4.654 1.141C98.283 137.145 96.471 136.67 95.134 136.031z" fill="#ffa8cc" stroke-width="none" opacity="1"></path></g><g id="svga-group-eyes-left" ><g id="svga-group-eyesback-left"><path id="SvgjsPath7118" d="M83.271 92.712c-3.293-0.892-4.969 1.202-9.809 1.324 -8.057 0.203-9.938-0.703-11.199-2.996C61.74 90.088 61.24 88.849 61 88.083l-0.1-4.715c1.328-4.488 19.541-4.944 25.9 2.027 0.287 0.757 0.433 1.463 0.465 2.122 -0.19 1.09-0.512 2.136-0.947 3.124C85.611 91.562 84.556 92.262 83.271 92.712z" fill="url(#SvgjsRadialGradient7119)" opacity="1"></path></g><g id="svga-group-eyesiriswrapper-left" transform="translate(-0.5 0)"><g id="svga-group-eyesiriscontrol-left" ><g id="svga-group-eyesiris-left" ><path id="SvgjsPath7292" d="M83.199 89.25c-1.231 4.522-5.896 7.187-10.429 5.944 -4.528-1.241-7.203-5.918-5.97-10.442 1.23-4.526 5.905-7.19 10.434-5.947C81.761 80.045 84.433 84.723 83.199 89.25z" fill="#8ab42d" stroke="#5c8600" stroke-width="0.5" opacity="1"></path><path id="SvgjsPath7293" d="M81.878 89.354c-1.202 3.473-4.827 5.499-8.357 4.531 -3.258-0.894-5.315-4.02-5.048-7.325 1.209-0.096 2.532-0.124 3.904-0.056 -0.014 0.047-0.039 0.087-0.051 0.136 -0.434 1.594 0.576 3.265 2.256 3.726 1.685 0.461 3.401-0.462 3.835-2.056 0.055-0.208 0.085-0.417 0.093-0.623C79.66 88.108 80.792 88.651 81.878 89.354z" fill="#9cc344" stroke-width="none" opacity="1" stroke="none"></path><path id="SvgjsPath7294" d="M76.151 84.464c-1.703-0.487-3.44 0.485-3.88 2.181 -0.44 1.687 0.584 3.454 2.286 3.942 1.705 0.489 3.443-0.484 3.884-2.173C78.884 86.719 77.855 84.953 76.151 84.464zM76.523 90.46c-0.708 0.22-1.441-0.072-1.636-0.655 -0.188-0.582 0.231-1.228 0.945-1.443 0.712-0.22 1.442 0.073 1.639 0.651C77.665 89.593 77.241 90.24 76.523 90.46z" fill="#000000" stroke-width="none" opacity="0.9"></path><path id="SvgjsPath7295" d="M70.482 91.476c-0.523 0.314-1.307 0.034-1.754-0.633 -0.448-0.66-0.381-1.451 0.145-1.767 0.521-0.311 1.311-0.03 1.755 0.632C71.07 90.37 71.006 91.162 70.482 91.476z" fill="#ffffff" stroke-width="none" opacity="0.6"></path><path id="SvgjsPath7296" d="M81.673 86.632c-1.198 0.718-2.999 0.072-4.02-1.445 -1.02-1.518-0.867-3.331 0.332-4.047 1.196-0.721 3-0.074 4.015 1.444C83.019 84.101 82.871 85.913 81.673 86.632z" fill="#ffffff" stroke-width="none" opacity="0.9"></path></g></g></g><g id="svga-group-eyesfront-left"><path id="SvgjsPath7143" d="M55.5 87c0 13.808 8.283 24.999 18.5 24.999S92.5 100.808 92.5 87c0-13.809-8.283-25.001-18.5-25.001S55.5 73.191 55.5 87zM61 88.083l-0.1-4.715c1.328-4.488 19.541-4.944 25.9 2.027 1.396 3.674-0.409 6.224-3.529 7.317 -3.293-0.892-4.969 1.202-9.809 1.324 -8.057 0.203-9.938-0.703-11.199-2.996C61.74 90.088 61.24 88.849 61 88.083z" fill="#f3d4cf" stroke-width="none" opacity="1"></path><path id="SvgjsPath7144" d="M59.898 85.083c0.023 8.56 7.646 15.459 17.038 15.416 9.389-0.049 16.985-7.022 16.961-15.583 -0.023-8.562-7.647-15.463-17.04-15.417C67.465 69.549 59.874 76.522 59.898 85.083zM61 88.083l-0.1-4.715c1.328-4.488 19.541-4.944 25.9 2.027 1.396 3.674-0.409 6.224-3.529 7.317 -3.293-0.892-4.969 1.202-9.809 1.324 -8.057 0.203-9.938-0.703-11.199-2.996C61.74 90.088 61.24 88.849 61 88.083z" fill="url(#SvgjsRadialGradient7145)" opacity="1"></path><path id="SvgjsPath7149" d="M62.264 91.041C61.74 90.088 61.24 88.849 61 88.083l-0.1-4.715c1.328-4.488 19.541-4.944 25.9 2.027 1.396 3.674-0.409 6.224-3.529 7.317 -3.293-0.892-4.969 1.202-9.809 1.324C65.406 94.239 63.524 93.333 62.264 91.041z" fill="url(#SvgjsRadialGradient7150)" opacity="1"></path><path id="SvgjsPath7153" d="M89.665 83.698c-9.617-6.546-16.701-6.963-28.117-6.129C71.077 75.863 82.052 77.099 89.665 83.698z" fill="#c5796d" stroke-width="none" opacity="1"></path><path id="SvgjsPath7154" d="M87.697 85.861c0.371 0.625 0.543 0.968 0.733 2.484C85.19 78.896 62.487 78.841 61 83.593v4.427c-1.021-1.75-1.494-3.878-1.931-5.889 -0.093-0.428-2.348-2.602-2.348-2.602s2.435 1.326 2.798 1.349c-0.182-0.216-1.127-1.248-1.127-1.248s2.251 0.931 2.576 0.843c-0.436-0.186-1.071-0.823-1.071-0.823 0.483 0.141 1.646 0.604 2.723 0.369 10.863-2.365 22.558 0.247 26.703 8C88.648 87.037 88.225 86.47 87.697 85.861zM84.943 93.048c-4.625-2.25-5.94 0.428-11.563 0.563 -8.004 0.191-9.567-0.871-11.125-2.813 0.813 2.375 1.375 3.504 10.875 3.438C78.506 94.198 81.443 91.673 84.943 93.048z" fill="#000000" stroke-width="none" opacity="1"></path></g></g><g id="svga-group-eyes-right" ><g id="svga-group-eyesback-right"><path id="SvgjsPath7126" d="M116.729 92.712c3.293-0.892 4.969 1.202 9.809 1.324 8.057 0.203 9.938-0.703 11.199-2.996 0.523-0.952 1.023-2.191 1.264-2.958l0.1-4.715c-1.328-4.488-19.541-4.944-25.9 2.027 -0.287 0.757-0.433 1.463-0.465 2.122 0.19 1.09 0.512 2.136 0.947 3.124C114.389 91.562 115.444 92.262 116.729 92.712z" fill="url(#SvgjsRadialGradient7127)" opacity="1"></path></g><g id="svga-group-eyesiriswrapper-right" transform="translate(0.5 0)"><g id="svga-group-eyesiriscontrol-right" ><g id="svga-group-eyesiris-right" ><path id="SvgjsPath7297" d="M133.199 89.25c-1.231 4.522-5.896 7.187-10.429 5.944 -4.528-1.241-7.203-5.918-5.97-10.442 1.23-4.526 5.905-7.19 10.434-5.947C131.761 80.045 134.433 84.723 133.199 89.25z" fill="#8ab42d" stroke="#5c8600" stroke-width="0.5" opacity="1"></path><path id="SvgjsPath7298" d="M131.878 89.354c-1.202 3.473-4.827 5.499-8.357 4.531 -3.258-0.894-5.315-4.02-5.048-7.325 1.209-0.096 2.532-0.124 3.904-0.056 -0.014 0.047-0.039 0.087-0.051 0.136 -0.434 1.594 0.576 3.265 2.256 3.726 1.685 0.461 3.401-0.462 3.835-2.056 0.055-0.208 0.085-0.417 0.093-0.623C129.66 88.108 130.792 88.651 131.878 89.354z" fill="#9cc344" stroke-width="none" opacity="1" stroke="none"></path><path id="SvgjsPath7299" d="M126.151 84.464c-1.703-0.487-3.44 0.485-3.88 2.181 -0.44 1.687 0.584 3.454 2.286 3.942 1.705 0.489 3.443-0.484 3.884-2.173C128.884 86.719 127.855 84.953 126.151 84.464zM126.523 90.46c-0.708 0.22-1.441-0.072-1.636-0.655 -0.188-0.582 0.231-1.228 0.945-1.443 0.712-0.22 1.442 0.073 1.639 0.651C127.665 89.593 127.241 90.24 126.523 90.46z" fill="#000000" stroke-width="none" opacity="0.9"></path><path id="SvgjsPath7300" d="M120.482 91.476c-0.523 0.314-1.307 0.034-1.754-0.633 -0.448-0.66-0.381-1.451 0.145-1.767 0.521-0.311 1.311-0.03 1.755 0.632C121.07 90.37 121.006 91.162 120.482 91.476z" fill="#ffffff" stroke-width="none" opacity="0.6"></path><path id="SvgjsPath7301" d="M131.673 86.632c-1.198 0.718-2.999 0.072-4.02-1.445 -1.02-1.518-0.867-3.331 0.332-4.047 1.196-0.721 3-0.074 4.015 1.444C133.019 84.101 132.871 85.913 131.673 86.632z" fill="#ffffff" stroke-width="none" opacity="0.9"></path></g></g></g><g id="svga-group-eyesfront-right"><path id="SvgjsPath7164" d="M126 61.999c-10.217 0-18.5 11.192-18.5 25.001 0 13.808 8.283 24.999 18.5 24.999S144.5 100.808 144.5 87C144.5 73.191 136.217 61.999 126 61.999zM137.736 91.041c-1.261 2.293-3.143 3.199-11.199 2.996 -4.84-0.122-6.516-2.216-9.809-1.324 -3.12-1.093-4.925-3.643-3.529-7.317 6.359-6.971 24.572-6.516 25.9-2.027l-0.1 4.715C138.76 88.849 138.26 90.088 137.736 91.041z" fill="#f3d4cf" stroke-width="none" opacity="1"></path><path id="SvgjsPath7165" d="M123.146 69.499c-9.393-0.045-17.017 6.856-17.04 15.417 -0.024 8.56 7.572 15.533 16.961 15.583 9.392 0.043 17.015-6.856 17.038-15.416C140.129 76.522 132.537 69.549 123.146 69.499zM137.736 91.041c-1.261 2.293-3.143 3.199-11.199 2.996 -4.84-0.122-6.516-2.216-9.809-1.324 -3.12-1.093-4.925-3.643-3.529-7.317 6.359-6.971 24.572-6.516 25.9-2.027l-0.1 4.715C138.76 88.849 138.26 90.088 137.736 91.041z" fill="url(#SvgjsRadialGradient7166)" opacity="1"></path><path id="SvgjsPath7170" d="M137.736 91.041c0.523-0.952 1.023-2.191 1.264-2.958l0.1-4.715c-1.328-4.488-19.541-4.944-25.9 2.027 -1.396 3.674 0.409 6.224 3.529 7.317 3.293-0.892 4.969 1.202 9.809 1.324C134.594 94.239 136.476 93.333 137.736 91.041z" fill="url(#SvgjsRadialGradient7171)" opacity="1"></path><path id="SvgjsPath7174" d="M110.335 83.698c9.617-6.546 16.701-6.963 28.117-6.129C128.923 75.863 117.948 77.099 110.335 83.698z" fill="#c5796d" stroke-width="none" opacity="1"></path><path id="SvgjsPath7175" d="M110.677 88.021c4.146-7.754 15.84-10.365 26.703-8 1.077 0.234 2.239-0.229 2.723-0.369 0 0-0.636 0.637-1.071 0.823 0.325 0.088 2.576-0.843 2.576-0.843s-0.945 1.032-1.127 1.248c0.363-0.022 2.798-1.349 2.798-1.349s-2.255 2.174-2.348 2.602c-0.437 2.011-0.91 4.139-1.931 5.889v-4.427c-1.487-4.752-24.19-4.698-27.431 4.751 0.19-1.516 0.362-1.859 0.733-2.484C111.775 86.47 111.352 87.037 110.677 88.021zM126.869 94.235c9.5 0.066 10.063-1.063 10.875-3.438 -1.558 1.941-3.121 3.004-11.125 2.813 -5.622-0.134-6.938-2.813-11.563-0.563C118.557 91.673 121.494 94.198 126.869 94.235z" fill="#000000" stroke-width="none" opacity="1"></path></g></g><g id="svga-group-facehighlight-single" ><path id="SvgjsPath6413" d="M140.204 113.007c0.035 22.275-17.995 40.365-40.273 40.396 -22.274 0.036-40.361-17.993-40.396-40.272C59.501 90.857 77.53 72.77 99.808 72.735 122.083 72.701 140.171 90.73 140.204 113.007z" fill="url(#SvgjsRadialGradient6414)" opacity="1"></path><path id="SvgjsPath6417" d="M135,55.999c0,19.329-15.671,35-35,35c-19.329,0-35-15.671-35-35s15.671-35,35-35C119.329,20.999,135,36.67,135,55.999z" fill="url(#SvgjsRadialGradient6418)" opacity="1"></path></g><g id="svga-group-eyebrows-left" ><path id="SvgjsPath7330" d="M57.992 72.441c14.723-3.028 33.357 2.799 33.336-0.649 0-0.869-0.892-1.128-1.755-1.194C74.692 69.333 68.299 68.423 57.992 72.441z" fill="#2a232b" stroke-width="none" opacity="1"></path></g><g id="svga-group-eyebrows-right" ><path id="SvgjsPath7331" d="M142.008 72.441c-4.028-0.829-6.352-1.175-12.865-0.904 -7.413 0.219-20.486 2.799-20.471 0.254 0-0.869 0.892-1.128 1.755-1.194C125.38 69.328 131.708 68.426 142.008 72.441z" fill="#2a232b" stroke-width="none" opacity="1"></path></g><g id="svga-group-nose-single" ><path id="SvgjsPath7619" d="M94.803 91.719c0 0 0.661 2.089 0.679 2.718 0.032 1.07-0.102 1.907-0.191 2.729 -0.579 5.369-3.579 13.137-3.418 16.845 0.07 1.597 1.125 3.926 1.125 3.926s-2.537-0.654-3.094-5.178c-0.23-1.866 1.717-5.479 2.397-7.23 0.646-1.664 1.906-7.059 2.348-8.798 0.186-0.729 0.52-1.607 0.515-2.362C95.162 93.697 94.803 91.719 94.803 91.719zM94.514 118.386c0 0 0.3 2.483 3.237 3.092 2.758 0.57 4.305-2.242 4.305-2.242s-2.292 1.442-4.052 0.925C97.075 119.889 94.514 118.386 94.514 118.386zM105.082 113.04c-0.02 0.595-0.198 2.316-0.198 2.316s0.904-1.384 0.962-1.93c0.104-0.98-1.063-3.808-1.063-3.808S105.109 112.176 105.082 113.04z" fill="#e4b3ab" stroke-width="none" opacity="1"></path><path id="SvgjsPath7620" d="M92.489 108.932c-1.224 3.882-2.089 7.991 1.481 9.82 0.467 0.239 0.967 0.416 1.475 0.517 0.276 0.054 0.479 0.288 0.722 0.441 0.557 0.357 1.475 0.408 2.113 0.518 2.454 0.424 4.93-0.568 5.538-2.942 -1.527 2.045-2.878 2.609-4.955 2.446 -2.493-0.196-4.573-2.28-5.227-4.726 -0.389-1.454-0.54-2.916-0.424-4.433 0.108-1.302 0.487-2.593 0.707-3.883 0.412-2.326 1.408-7.191 1.401-9.62 -0.398 1.693-1.119 5.687-1.392 6.661 -0.204 0.726-0.635 2.199-0.811 2.933C92.978 107.253 92.667 108.364 92.489 108.932zM92.207 115.405c-0.163-1.144 0.045-2.348 0.294-3.457 0.088 2.204 0.708 4.771 2.122 6.399C93.401 117.86 92.414 116.852 92.207 115.405 92.061 114.382 92.458 117.163 92.207 115.405z" fill="#c5796d" stroke-width="none" opacity="1"></path><path id="SvgjsPath7621" d="M95.57 113.331c0.158 0.712 0.032 1.354-0.281 1.438 -0.313 0.082-0.634-0.351-0.792-1.063 -0.158-0.711-0.09-1.432 0.222-1.513C95.032 112.11 95.413 112.62 95.57 113.331z" fill="#ffffff" stroke-width="none" opacity="1"></path></g><g id="svga-group-hair-front" ><path id="SvgjsPath7393" d="M142.198 28.734c-9.237-8.79-44.549-0.761-55.197 0.239C76.86 29.755 63.475-1.366 43.396 78.452c0.045 3.839 1.29 10.633 2.796 15.468 0.145-0.101 0.286-0.208 0.431-0.306 0 0-0.518 3.257 6.058 14.39 -0.348-8.073 1.212-13.893 2.492-21.414 15.709-19.987 30.389-24.674 41.56-28.155C89.233 67.19 81.814 75.225 78.568 84c13.647-9.576 32.409-28.884 32.409-28.884S109.574 59.819 83.292 84c10.943-2.679 31.345-13.679 45.636-34.951 2.746 4.5-12.4 30.794-12.827 31.801 7.663-6.086 18.079-14.636 20.755-24.62 0 0 1.571 4.043 2.662 8.635 2.878 12.162 2.904 27.281 3.429 31.125 1.665-8.721 1.925-18.482 1.922-18.355 3.905 17.893 0.419 30.394 0.352 34.724 5.198-10.435 10.604-22.897 12.177-34.534C157.396 77.824 145.779 27.134 142.198 28.734z" fill="#b84131" stroke-width="none" opacity="0.1"></path><path id="SvgjsPath7394" d="M170.618 67.866c-0.08-5.39-1.12-13.92-2.921-18.78 3.28 3.39 7.41 7.39 10.78 9.5 -4.46-3.86-5.841-7.16-15.921-28.3 -6.189-12.98-10.287-26.75-22.378-28.37 -4.079-0.56-8.05 0.99-11.779 2.59 -9.61-8.79-21.59-12.331-32.67-11.331 -33.88 2.51-42.917 24.391-61.037 28.771 2.84 0.83 7.616-0.468 10.336-1.748 -3.75 5.06-2.422 4.531-10.692 12.801 -3.37 3.34-6.483 7.444-10.543 9.854 5.449-0.681 8.312-4.834 16.282-9.104 -1.15 1.84-5.249 8.094-11.929 14.494 -2.87 2.74-7.599 6.584-10.899 8.914 2.41-0.96 9.489-3.726 15.608-9.152 -3.169 4.531-12.261 12.94-8.145 29.881 0.832-7.406-0.001-16.415 7.048-20.895 -0.784 3.301-3.814 10.222-1.603 17.708H41.09c0.047 3.839 1.341 10.934 2.909 15.769 0.151-0.101 0.297-0.208 0.449-0.306 0 0 0.502 3.257 7.343 14.39 -0.364-8.073 0.222-13.893 1.553-21.414 16.345-19.987 31.619-24.674 43.241-28.155 -7.804 8.755-13.814 18.837-17.193 27.612 11.046-11.66 33.834-29.767 33.834-29.767s-0.364 4.866-27.712 29.046c9.449-5.795 29.698-15.006 44.566-36.278 2.858 4.5-10.819 30.794-11.264 31.801 7.974-6.086 14.646-16.636 17.435-26.62 0 0 3.716 6.043 4.847 10.635 2.995 12.162 1.984 22.281 2.528 26.125 1.732-8.721 3.042-13.482 3.039-13.355 4.066 17.893-0.604 32.394-0.672 36.724 5.406-10.434 12.072-24.997 13.709-36.634H171.3C170.631 69.944 171.127 69.932 170.618 67.866z" fill="#b84131" stroke-width="none" opacity="1"></path><path id="SvgjsPath7395" d="M177.236 37.286c-3.811-0.17-5.876 0.099-10.356-0.261 -0.67-1.53-2.738-5.55-3.438-7.07C166.941 33.055 174.206 36.976 177.236 37.286z" fill="#991b0a" stroke-width="none" opacity="1"></path><path id="SvgjsPath7396" d="M40.385 33.266c-7.787 4.224-11.305 8.458-15.656 9.179 4.06-2.41 6.46-5.99 9.83-9.33 8.27-8.27 7.26-8.3 11.01-13.36 -2.604 1.225-7.117 2.837-9.989 2.247C49.1 20.922 63.972 3.71 80 6 63.505 7.833 49.533 19.744 40.385 33.266zM118.817 77.397c11.188-23.146 11.904-26.578 11.264-31.801 -13.432 19.217-40.876 34.016-44.566 36.278 16.33-14.438 23.567-24.358 26.301-27.924C89.192 71.938 89.208 72.234 79.392 82.595c5.663-14.707 2.783-11.447 17.193-27.612 -6.263 1.876-11.361 3.689-15.442 5.618 0.567-1.342 0.738-2.05 2.64-4.833 7.124-4.361 21.086-15.032 31.086-18.481 -3.529 2.783-5.345 6.283-8.84 9.096 5.358-1.356 11.907-2.056 22.24-7.796 -0.553 0.442 17.922-8.631 11.935-19.03 3.684 2.625 0.95 13.336-0.784 23.305 3.888 5.373 4.755 11.915 6.033 18.583 0.121-2.193 0.47-7.496 0.016-9.648 2.284 5.926 5.567 13.815 5.526 22.481C155.411 62.569 152 52 152 41c3.791 6.331 5.29 17.906 6.192 25.033 0.916-4.582 1.52-8.026-0.544-14.033 1.302 1.624 3.089 2.834 4.352 5 -1.721-9.445-4.858-16.042-9.204-22.833C156.921 38.936 163 43 165 49c-1-11-5-22-12-31 3.743 4.367 7.097 8.734 10.061 13.343 9.618 20.183 11.033 23.448 15.417 27.242 -3.37-2.11-7.5-6.109-10.78-9.5 1.801 4.86 2.841 13.39 2.921 18.78 0.509 2.065 0.013 2.178 0.682 6.505h-11.597c-1.637 11.637-8.303 26.1-13.709 36.534 0.066-4.227 4.514-18.146 0.944-35.449 -0.088-0.424-0.175-0.847-0.272-1.275 0.003-0.127-1.307 4.635-3.039 13.355 -0.544-3.844 0.467-13.963-2.528-26.125 -1.131-4.592-4.847-10.635-4.847-10.635C128.832 69.641 120.864 76.769 118.817 77.397zM94.869 43.184C85.796 45.839 77 53 70 60c2-3 3-7 6-10 5-10 14-17 21-25 -15 9-24 22-35 35 3-6 6-14 11-19 -10 5-12 15-19 23 4-32 34-69 69-58C88.059-7.698 53.547 29.071 45.395 68.148 45.361 64.358 45.921 43.079 54 35c-8 6-10 16-15 23 -0.814-4.072 1.024-7.481 2.274-10.767 -1.054 1.576-3.016 2.758-4.23 4.512C39.577 43.671 42.073 35.284 50 30c-4.726 2.363-8.216 5.96-12.902 8.362 -2.15 2.944-5.13 6.637-8.769 10.124 -2.87 2.74-6.98 5.88-10.28 8.21 2.41-0.96 9.3-4.7 15.47-9.49 -2.95 4.77-12.27 12.74-8.9 29.41 0.33-7.42 0.52-15.68 7.57-20.16C31.405 59.757 28.145 67.514 30.356 75H41.09c0.047 3.839 1.341 10.633 2.909 15.468 0.151-0.101 0.297-0.208 0.449-0.306 0 0 0.318 1.985 3.66 8.081 0.96 1.751 2.157 3.824 3.684 6.309 -0.364-8.073 0.222-13.893 1.553-21.414 9.843-12.036 19.295-18.52 27.798-22.537C81.859 58.904 84.681 51.958 94.869 43.184z" fill="#a92d1c" stroke-width="none" opacity="1"></path><path id="SvgjsPath7397" d="M39.14 35.028C50.711 12.323 73.942 5.8 82.235 5.829 64.286 9.892 51.536 17.819 39.14 35.028zM112.286 4.067C99.313 3.229 75.107 11.58 62.155 38.708 76.494 13.067 102.913 3.465 112.286 4.067zM144.313 7.883c-0.668-0.242-1.258-0.718-1.929-0.979 -7.811-3.035-14.957 2.381-15.565 7.654C127.992 9.383 135.786 4.803 144.313 7.883zM138.188 11.621c12.901-3.002 23.234 21.063 23.497 22.066C159.6 25.7 150.582 7.854 138.528 10.768c-3.965 0.959-7.038 3.953-9.309 7.198C131.586 15.113 134.468 12.47 138.188 11.621zM92.531 49.976c7.02-5.938 39.023-15.771 37.895-29.705C130.234 32.882 105.025 39.407 92.531 49.976zM123.893 16.667c-2.088-0.968-6.35-4.938-17.326 1.636C88.869 28.902 77.858 46.716 75.207 51.149 83.655 39.44 109.684 10.093 123.893 16.667z" fill="#991b0a" stroke-width="none" opacity="1"></path><path id="SvgjsPath7398" d="M77.774 9.337C58.393 16.2 45.395 30.218 45.395 30.218 54.68 20.083 63.288 12.957 77.774 9.337zM52.747 32.614c1.826-3.136 16.3-19.207 24.673-22.069C68.571 12.888 57.47 24.503 52.747 32.614zM72.415 30.195c0 0 14.956-18.491 31.382-22.259C90.858 9.004 79.387 19.403 72.415 30.195zM91.168 35.718c0.92-1.296 18.853-16.116 26.805-18.162C109.279 18.78 93.755 32.075 91.168 35.718zM106.619 29.037c1.081-1.479 8.328-8.794 17.066-9.925C115.821 19.303 111.162 22.824 106.619 29.037zM98.693 39.328c4.613-6.021 17.328-8.604 25.865-17.449C116.765 29.092 105.065 31.012 98.693 39.328zM114.135 42.83c1.002 0 18.698-9.222 22.402-13.077 3.405-3.543 3.938-7.255 1.396-8.925 3.425 3.821-1.259 7.586-3.095 9.151C133.101 31.461 125.346 36.745 114.135 42.83 114.136 42.83 115.105 42.303 114.135 42.83zM133.194 36.025c6.469-4.646 10.608-13.196 6.736-16.54 -1.339-1.156-3.436-1.577-5.168-1.556 1.738-0.021 4.151 0.622 5.297 1.993 4.005 4.778-3.688 12.915-8.86 16.402 -7.433 5.012-16.3 7.966-24.96 10.046C115.538 44.373 125.367 41.646 133.194 36.025zM74.46 34.228c0 0 12.903-15.915 26.442-21.077 1.596-0.608 3.241-0.829 4.901-1.161C93.18 13.181 81.436 23.811 74.46 34.228zM71.001 43.084c1-0.716 18.004-20.675 33.561-26.663C91.336 19.74 78.568 31.611 71.001 43.084zM159.665 35.255c-0.596-1.001-5.457-18.448-15.779-16.404C150.81 18.188 156.162 28.076 159.665 35.255zM150.497 54.228c0.147-4.855 2.044-15.259-6.717-23.478C148.394 36.237 150.662 45.406 150.497 54.228z" fill="#c75849" stroke-width="none" opacity="1"></path><path id="SvgjsPath7399" d="M183.02 61.345c-8.591-7.05-8.95-8.69-15.57-23.75 4.52 0.38 8.39 0.06 12.06-0.2 -7.56-0.74-13.149-6.29-16.029-8.68 -7.57-16.09-13.48-31.96-30.74-26.41 -1.36 0.44-2.71 0.96-4.04 1.57 -7.68-8.32-19.42-12.54-30.32-12.49 -31.79 0.12-46.83 23.91-60.24 29.1 -1.6 0.62-3.38 1.09-5.08 1.49 3.02 1.09 5.67 1.29 10.67-0.75 -6.2 8.24-3.19 3.92-10.56 11.66 -3.32 3.46-6.43 8.08-11.15 10.25 3.97 0.5 6.69-0.69 10.14-3.04 2.39-1.61 4.84-3.66 6.64-4.95 -7.24 11.04-24.31 23.26-24.31 23.26 5.59-1.06 11.42-4.38 16.11-8.14 -0.17 0.23-0.35 0.46-0.52 0.69 -2.46 3.25-4.83 6.75-5.96 10.71 -2.02 7.04-1.06 13.639 1.46 20.489 -0.64-6.07-0.74-18.58 5.67-24.379C30.026 61.248 27.022 68.061 29.164 75h0.875 0.317c-2.211-7.485 1.049-15.243 1.833-18.544 -7.05 4.48-7.24 12.74-7.57 20.16 -3.37-16.67 5.95-24.64 8.9-29.41 -6.17 4.79-13.06 8.53-15.47 9.49 3.3-2.33 7.41-5.47 10.28-8.21 6.68-6.4 11.16-13.52 12.31-15.36 -7.97 4.27-11.51 8.59-15.91 9.32 4.06-2.41 6.46-5.99 9.83-9.33 8.27-8.27 7.26-8.3 11.01-13.36 -2.72 1.28-7.53 2.99-10.37 2.16 18.12-4.38 26.65-25.73 60.53-28.24 11.081-1 23.06 2.04 32.67 10.83 3.729-1.6 7.7-2.95 11.779-2.39 12.091 1.62 15.591 15.19 21.78 28.17 10.08 21.14 11.66 24.14 16.12 28 -3.37-2.11-7.5-6.41-10.78-9.8 1.801 4.86 3.04 13.19 3.12 18.58 -2.05-6.78-5.83-12.26-9.87-17.39 0.851 1.22 8.21 10.8 10.021 22.35 -3.05-6.02-6.92-11.45-11.21-16.62 6.775 9.128 9.306 14.798 11.318 19.136 0.264 0 0.029-0.217 1.079 0.006 -0.079-0.174-0.238-0.532-0.317-0.703 -0.061-1 1.05-12.39-2.931-23.38C173.339 55.875 175.669 58.795 183.02 61.345zM176.439 37.186c-3.811-0.17-4.88-0.2-9.36-0.56 -0.67-1.53-2.34-4.35-3.04-5.87C167.539 33.855 173.409 36.875 176.439 37.186zM156.85 87.045c-2.49 9.14-6.841 19.28-11.99 26.3 1.87-13.8 3.479-27.76 1.779-37.28 -0.569 5.73-1.899 11.2-3.64 16.67 0.41-7.11-0.35-14.37-1.02-21.44 -0.341-3.52-0.83-7.01-1.57-10.47 -0.7-3.29-2.34-6.27-3.84-9.25 -1.78 5.84-4.65 10.85-7.84 16.03 -3.07 4.99-6.88 9.18-11.92 12.14 3.25-5.36 6.229-12.75 8.229-16.96 1.84-3.88 5.39-10.32 4.9-16.33 -5.561 8.7-14.36 16.58-22.58 22.81 -7.86 5.96-24.62 14.67-25.62 15.05 0.2-0.22 9.54-8.66 15.53-14.51 11.36-11.08 13.21-13.3 14.78-15.65 -5.8 5.05-11.42 10.3-17.24 15.33 -5.66 4.89-11.44 9.71-16.74 15.01 1.5-5.41 3.99-10.33 6.6-15.03 2.85-5.11 6.46-9.39 10.58-13.51 -23.378 7.551-39.08 24.38-41.29 27.14 -0.51 4.42-1.17 19.86-0.71 26.4 -5.932-10.697-18.602-27.757-11.658-54.876 -2.687 13.262 0.833 34.105 9.848 48.787 -0.29-6.43 0.32-13.03 1.44-19.36 -1.86 1.91-3.76 3.72-5.87 5.34 1.09-6.52 4.68-12.63 7.9-18.31 3.06-5.37 6.49-10.68 11.13-14.84 -3.67 4.46-6.98 9.89-9.99 15.14 -3.3 5.75-6.98 12.73-8.18 16.9 6.77-6.6 10.3-14.29 26.97-24.64 9.7-6.02 15.45-7.08 21.66-8.94 1.07-1.1 2.13-2.19 3.17-3.32 1.99-2.16 3.74-4.46 5.47-6.83 -6.689 10.42-8.76 10.79-13.779 17.45 -7.61 10.09-8.34 13.08-11.13 19.26 6.1-6.44 9.41-8.49 15.85-14.6 5.07-4.82 16.58-13.46 16.89-13.98 1.25-2.11 2.46-5.22 4.15-8.13 -1.7 3.56-2.63 7.37-4.78 10.7 -2.16 3.34-5.29 6.29-7.97 9.21 -4.42 4.81-10.89 10.75-17.41 16.21 4.99-3.06 10.19-5.66 15.03-8.99 4.7-3.23 9.27-6.71 13.56-10.48 8.301-7.28 15.11-15.79 20.34-25.49 -1.63 3.43-3.42 6.79-5.46 9.99 0.631 3.72-0.199 7.31-1.569 10.78 -0.41 1.04-7.29 16.5-9.37 20.14 2.96-2.26 5.1-5.08 7.16-8.15 6.95-10.4 10.42-17.72 12.35-30.55 -0.399 4.22-0.979 8.44-2.11 12.54 2.061 5.1 3.341 6.48 4.5 10.88 2.12 8.04 2.54 16.39 2.32 24.67 2.26-11.38 3.4-22.64 1.76-34.21 2.41 13.95 1.49 22.32 1.49 22.32 0.5 2.2 0.88 4.42 1.16 6.66 1.21 9.68 0.1 19.31-1.81 28.82 9.399-18.14 11.949-43.65 7.229-63.271 2.04 6.83 3.16 13.82 3.34 20.95 0.181 6.9-0.05 14.01-1.229 20.82 2.29-5.99 4.412-15.707 4.412-17.556C160.342 74.499 158.489 81.005 156.85 87.045z" fill="#8a1000" stroke-width="none" opacity="1"></path></g><g id="svga-group-glasses-single" ><path id="SvgjsPath6545" d="M100,18.13L100,18.13L100,18.13L100,18.13z" fill="#26120b" stroke-width="none" opacity="1"></path></g></g></g><rect id="SvgjsRect6398" width="200" height="15" x="0" y="185" fill="#ecf0f1" opacity="0.5" style="display:none;"></rect><text id="SvgjsText6399" font-family="&quot;Roboto&quot;, &quot;Helvetica Neue&quot;, Helvetica, Arial, sans-serif" style="font-size:0.84em;font-family:&quot;Roboto&quot;, &quot;Helvetica Neue&quot;, Helvetica, Arial, sans-serif;text-anchor:middle;font-weight:400;display:none;" font-size="0.84em" text-anchor="middle" font-weight="400" fill="#000000" x="100" y="185"><tspan id="SvgjsTspan6400" dy="1.2em" x="100" style="font-size:0.84em;font-family:&quot;Roboto&quot;, &quot;Helvetica Neue&quot;, Helvetica, Arial, sans-serif;text-anchor:middle;font-weight:400;">Created on AvatarMaker.com</tspan></text></g><defs id="SvgjsDefs6366"><radialGradient id="SvgjsRadialGradient6414" cx="100" cy="113" r="40" gradientUnits="userSpaceOnUse" class="svga-on-canvas-facehighlight-gradient-single-0"><stop id="SvgjsStop6415" stop-opacity="0.5" stop-color="#fff4f3" offset="0" ></stop><stop id="SvgjsStop6416" stop-opacity="0" stop-color="#f3d4cf" offset="0.9" ></stop></radialGradient><radialGradient id="SvgjsRadialGradient6418" cx="100" cy="57" r="36" gradientUnits="userSpaceOnUse" class="svga-on-canvas-facehighlight-gradient-single-1"><stop id="SvgjsStop6419" stop-opacity="0.5" stop-color="#fff4f3" offset="0" ></stop><stop id="SvgjsStop6420" stop-opacity="0" stop-color="#f3d4cf" offset="0.9" ></stop></radialGradient><radialGradient id="SvgjsRadialGradient7119" cx="125.187" cy="86.184" r="12.84" gradientTransform="matrix(-1.0592 3.999999e-004 -4.000000e-004 1.0589 206.5114 -6.1261)" gradientUnits="userSpaceOnUse" class="svga-on-canvas-eyesback-gradient-left-0"><stop id="SvgjsStop7120" stop-opacity="1" stop-color="#ffffff" offset="0" ></stop><stop id="SvgjsStop7121" stop-opacity="1" stop-color="#fdfefe" offset="0.544" ></stop><stop id="SvgjsStop7122" stop-opacity="1" stop-color="#f6f8f9" offset="0.74" ></stop><stop id="SvgjsStop7123" stop-opacity="1" stop-color="#eaeff2" offset="0.879" ></stop><stop id="SvgjsStop7124" stop-opacity="1" stop-color="#d9e3e8" offset="0.992" ></stop><stop id="SvgjsStop7125" stop-opacity="1" stop-color="#d8e2e7" offset="1" ></stop></radialGradient><radialGradient id="SvgjsRadialGradient7127" cx="125.187" cy="86.184" r="12.84" gradientTransform="matrix(1.0592 4.000000e-004 4.000000e-004 1.0589 -6.5114 -6.1261)" gradientUnits="userSpaceOnUse" class="svga-on-canvas-eyesback-gradient-right-0"><stop id="SvgjsStop7128" stop-opacity="1" stop-color="#ffffff" offset="0" ></stop><stop id="SvgjsStop7129" stop-opacity="1" stop-color="#fdfefe" offset="0.544" ></stop><stop id="SvgjsStop7130" stop-opacity="1" stop-color="#f6f8f9" offset="0.74" ></stop><stop id="SvgjsStop7131" stop-opacity="1" stop-color="#eaeff2" offset="0.879" ></stop><stop id="SvgjsStop7132" stop-opacity="1" stop-color="#d9e3e8" offset="0.992" ></stop><stop id="SvgjsStop7133" stop-opacity="1" stop-color="#d8e2e7" offset="1" ></stop></radialGradient><radialGradient id="SvgjsRadialGradient7135" cx="125.187" cy="86.184" r="12.84" gradientTransform="matrix(-1.0592 3.999999e-004 -4.000000e-004 1.0589 206.5114 -6.1261)" gradientUnits="userSpaceOnUse" class="svga-on-canvas-eyesfront-gradient-left-0"><stop id="SvgjsStop7136" stop-opacity="1" stop-color="#ffffff" offset="0" ></stop><stop id="SvgjsStop7137" stop-opacity="1" stop-color="#fdfefe" offset="0.544" ></stop><stop id="SvgjsStop7138" stop-opacity="1" stop-color="#f6f8f9" offset="0.74" ></stop><stop id="SvgjsStop7139" stop-opacity="1" stop-color="#eaeff2" offset="0.879" ></stop><stop id="SvgjsStop7140" stop-opacity="1" stop-color="#d9e3e8" offset="0.992" ></stop><stop id="SvgjsStop7141" stop-opacity="1" stop-color="#d8e2e7" offset="1" ></stop></radialGradient><radialGradient id="SvgjsRadialGradient7145" cx="123.021" cy="84.391" fx="133.604" fy="80.492" r="17.898" gradientTransform="matrix(0.9998 0.0208 0.0166 -0.7998 -47.4114 149.3288)" gradientUnits="userSpaceOnUse" class="svga-on-canvas-eyesfront-gradient-left-3"><stop id="SvgjsStop7146" stop-opacity="1" stop-color="#e4b3ab" offset="0" ></stop><stop id="SvgjsStop7147" stop-opacity="0.3" stop-color="#e4b3ab" offset="0.7" ></stop><stop id="SvgjsStop7148" stop-opacity="0" stop-color="#f3d4cf" offset="1" ></stop></radialGradient><radialGradient id="SvgjsRadialGradient7150" cx="79.54" cy="83.579" r="23.208" gradientTransform="matrix(1.0971 -0.0567 0.0576 1.0844 -20.1314 20.8883)" gradientUnits="userSpaceOnUse" class="svga-on-canvas-eyesfront-gradient-left-4"><stop id="SvgjsStop7151" stop-opacity="0" stop-color="#000000" offset="0.94" ></stop><stop id="SvgjsStop7152" stop-opacity="0.3" stop-color="#000000" offset="1" ></stop></radialGradient><radialGradient id="SvgjsRadialGradient7156" cx="125.187" cy="86.184" r="12.84" gradientTransform="matrix(1.0592 4.000000e-004 4.000000e-004 1.0589 -6.5114 -6.1261)" gradientUnits="userSpaceOnUse" class="svga-on-canvas-eyesfront-gradient-right-0"><stop id="SvgjsStop7157" stop-opacity="1" stop-color="#ffffff" offset="0" ></stop><stop id="SvgjsStop7158" stop-opacity="1" stop-color="#fdfefe" offset="0.544" ></stop><stop id="SvgjsStop7159" stop-opacity="1" stop-color="#f6f8f9" offset="0.74" ></stop><stop id="SvgjsStop7160" stop-opacity="1" stop-color="#eaeff2" offset="0.879" ></stop><stop id="SvgjsStop7161" stop-opacity="1" stop-color="#d9e3e8" offset="0.992" ></stop><stop id="SvgjsStop7162" stop-opacity="1" stop-color="#d8e2e7" offset="1" ></stop></radialGradient><radialGradient id="SvgjsRadialGradient7166" cx="123.021" cy="84.391" fx="133.604" fy="80.492" r="17.898" gradientTransform="matrix(-0.9998 0.0208 -0.0166 -0.7998 247.4192 149.3287)" gradientUnits="userSpaceOnUse" class="svga-on-canvas-eyesfront-gradient-right-3"><stop id="SvgjsStop7167" stop-opacity="1" stop-color="#e4b3ab" offset="0" ></stop><stop id="SvgjsStop7168" stop-opacity="0.3" stop-color="#e4b3ab" offset="0.7" ></stop><stop id="SvgjsStop7169" stop-opacity="0" stop-color="#f3d4cf" offset="1" ></stop></radialGradient><radialGradient id="SvgjsRadialGradient7171" cx="79.54" cy="83.579" r="23.208" gradientTransform="matrix(-1.0971 -0.0567 -0.0576 1.0844 220.1314 20.8883)" gradientUnits="userSpaceOnUse" class="svga-on-canvas-eyesfront-gradient-right-4"><stop id="SvgjsStop7172" stop-opacity="0" stop-color="#000000" offset="0.94" ></stop><stop id="SvgjsStop7173" stop-opacity="0.3" stop-color="#000000" offset="1" ></stop></radialGradient><radialGradient id="SvgjsRadialGradient7248" cx="-558.588" cy="-490.918" r="84.646" gradientTransform="matrix(0.096 -0.0248 0.0245 0.0961 140.5478 120.3577)" gradientUnits="userSpaceOnUse" class="svga-on-canvas-eyesiris-gradient-left-1"><stop id="SvgjsStop7249" stop-opacity="0.8" stop-color="#ffffff" offset="0" ></stop><stop id="SvgjsStop7250" stop-opacity="0" stop-color="#ffffff" offset="1" ></stop></radialGradient><radialGradient id="SvgjsRadialGradient7252" cx="-565.337" cy="-492.691" r="84.644" gradientTransform="matrix(0.0991 8.856325e-004 -0.0011 0.0991 130.3774 136.3533)" gradientUnits="userSpaceOnUse" class="svga-on-canvas-eyesiris-gradient-left-2"><stop id="SvgjsStop7253" stop-opacity="0.8" stop-color="#ffffff" offset="0" ></stop><stop id="SvgjsStop7254" stop-opacity="0" stop-color="#ffffff" offset="1" ></stop></radialGradient><linearGradient id="SvgjsLinearGradient7258" x1="122.283" y1="93.047" x2="123.61" y2="91.466" gradientTransform="matrix(1 0 0 1 -52 0)" gradientUnits="userSpaceOnUse" class="svga-on-canvas-eyesiris-gradient-left-5"><stop id="SvgjsStop7259" stop-opacity="1" stop-color="#ffffff" offset="0" ></stop><stop id="SvgjsStop7260" stop-opacity="0" stop-color="#ffffff" offset="1" ></stop></linearGradient><linearGradient id="SvgjsLinearGradient7262" x1="127" y1="85" x2="125" y2="87" gradientTransform="matrix(1 0 0 1 -50 0)" gradientUnits="userSpaceOnUse" class="svga-on-canvas-eyesiris-gradient-left-6"><stop id="SvgjsStop7263" stop-opacity="1" stop-color="#ffffff" offset="0" ></stop><stop id="SvgjsStop7264" stop-opacity="0" stop-color="#ffffff" offset="1" ></stop></linearGradient><linearGradient id="SvgjsLinearGradient7266" x1="130" y1="81" x2="126" y2="85" gradientTransform="matrix(1 0 0 1 -50 0)" gradientUnits="userSpaceOnUse" class="svga-on-canvas-eyesiris-gradient-left-7"><stop id="SvgjsStop7267" stop-opacity="1" stop-color="#ffffff" offset="0" ></stop><stop id="SvgjsStop7268" stop-opacity="0" stop-color="#ffffff" offset="1" ></stop></linearGradient><radialGradient id="SvgjsRadialGradient7271" cx="-578.76" cy="-490.73" r="84.646" gradientTransform="matrix(0.096 -0.0248 0.0245 0.0961 192.4794 119.8404)" gradientUnits="userSpaceOnUse" class="svga-on-canvas-eyesiris-gradient-right-1"><stop id="SvgjsStop7272" stop-opacity="0.8" stop-color="#ffffff" offset="0" ></stop><stop id="SvgjsStop7273" stop-opacity="0" stop-color="#ffffff" offset="1" ></stop></radialGradient><radialGradient id="SvgjsRadialGradient7275" cx="-584.778" cy="-487.329" r="84.644" gradientTransform="matrix(0.0991 8.856325e-004 -0.0011 0.0991 182.3104 135.839)" gradientUnits="userSpaceOnUse" class="svga-on-canvas-eyesiris-gradient-right-2"><stop id="SvgjsStop7276" stop-opacity="0.8" stop-color="#ffffff" offset="0" ></stop><stop id="SvgjsStop7277" stop-opacity="0" stop-color="#ffffff" offset="1" ></stop></radialGradient><linearGradient id="SvgjsLinearGradient7281" x1="120.284" y1="93.047" x2="121.611" y2="91.467" gradientUnits="userSpaceOnUse" class="svga-on-canvas-eyesiris-gradient-right-5"><stop id="SvgjsStop7282" stop-opacity="1" stop-color="#ffffff" offset="0" ></stop><stop id="SvgjsStop7283" stop-opacity="0" stop-color="#ffffff" offset="1" ></stop></linearGradient><linearGradient id="SvgjsLinearGradient7285" x1="127" y1="85" x2="125" y2="87" gradientUnits="userSpaceOnUse" class="svga-on-canvas-eyesiris-gradient-right-6"><stop id="SvgjsStop7286" stop-opacity="1" stop-color="#ffffff" offset="0" ></stop><stop id="SvgjsStop7287" stop-opacity="0" stop-color="#ffffff" offset="1" ></stop></linearGradient><linearGradient id="SvgjsLinearGradient7289" x1="130" y1="81" x2="126" y2="85" gradientUnits="userSpaceOnUse" class="svga-on-canvas-eyesiris-gradient-right-7"><stop id="SvgjsStop7290" stop-opacity="1" stop-color="#ffffff" offset="0" ></stop><stop id="SvgjsStop7291" stop-opacity="0" stop-color="#ffffff" offset="1" ></stop></linearGradient><linearGradient id="SvgjsLinearGradient7404" x1="99.98" y1="171.27" x2="99.98" y2="136.351" gradientUnits="userSpaceOnUse" class="svga-on-canvas-chinshadow-gradient-single-0"><stop id="SvgjsStop7405" stop-opacity="0.8" stop-color="#e4b3ab" offset="0" ></stop><stop id="SvgjsStop7406" stop-opacity="1" stop-color="#c5796d" offset="0.7" ></stop></linearGradient><linearGradient id="SvgjsLinearGradient7526" x1="100" y1="141" x2="100" y2="137" gradientUnits="userSpaceOnUse" class="svga-on-canvas-mouth-gradient-single-0"><stop id="SvgjsStop7527" stop-opacity="1" stop-color="#ebc3bd" offset="0.1" ></stop><stop id="SvgjsStop7528" stop-opacity="1" stop-color="#e4b3ab" offset="1" ></stop></linearGradient></defs></svg>