<?xml version="1.0" encoding="utf-8"?>
<!-- Generator: Adobe Illustrator 21.0.2, SVG Export Plug-In . SVG Version: 6.00 Build 0)  -->
<svg version="1.1" id="Layer_1" xmlns="http://www.w3.org/2000/svg" xmlns:xlink="http://www.w3.org/1999/xlink" x="0px" y="0px"
	 viewBox="0 0 466 497" style="enable-background:new 0 0 466 497;" xml:space="preserve">
<style type="text/css">
	.st0{font-family:'Sansation-Light';}
	.st1{font-size:33px;}
	.st2{fill:none;stroke:#000000;stroke-width:2;}
</style>
<g>
	<polygon points="406.6,445.6 387.1,434.3 368,422.9 368,377.6 387.1,366.3 407.2,355.4 426.7,366.4 444.2,377 440.1,383.8 
		422.6,373.3 407.1,364.5 391,373.3 376,382.2 376,418.3 391.2,427.4 406.6,436.4 421.6,427.6 439.9,417.5 443.8,424.5 425.6,434.6 
			"/>
</g>
<path d="M235.6,22.2l-138,79.7v159.3l138,79.6l138-79.6V101.9L235.6,22.2z M359.4,253l-123.8,71.5L111.7,253V110l123.8-71.5
	L359.4,110V253z"/>
<g>
	<polygon points="266,125.8 237.2,161.3 208,125.7 208,147.7 237,182.4 266,147.7 	"/>
	<path d="M277.8,124.9v44.8c0,0.1,0,0.1,0,0.2v65.9h11.3V124.9H277.8z"/>
	<path d="M184.9,124.9v44.8c0,0.1,0,0.1,0,0.2v65.9h11.3V124.9H184.9z"/>
</g>
<g>
	<path d="M29,386.6v-26.4h-8.2V441H29v-54C29,386.9,29,386.8,29,386.6"/>
	<polygon points="81.8,358.8 60.8,384.6 39.5,358.7 39.5,374.7 60.6,400.6 81.8,374.8 	"/>
	<path d="M92.3,360.2v32.6v0.1V441h8.2v-80.8H92.3z"/>
</g>
<rect x="144.8" y="360.2" width="8.2" height="80.8"/>
<g>
	<polygon points="258.2,358.9 237.3,384.7 216,358.8 216,374.8 237.1,400.6 258.2,374.8 	"/>
	<polygon points="205.5,360.2 197.3,360.2 197.3,441 205.5,441 205.5,370.8 205.5,370.8 	"/>
	<polygon points="268.7,360.2 268.7,370.8 268.8,370.8 268.8,441 277,441 277,360.2 	"/>
</g>
<rect x="321.3" y="360.2" width="8.2" height="80.8"/>
<text transform="matrix(1 0 0 1 193.318 477.3925)" class="st0 st1">social</text>
<line class="st2" x1="184.3" y1="467.4" x2="20.5" y2="467.4"/>
<line class="st2" x1="443.5" y1="467.4" x2="289.5" y2="467.4"/>
</svg>
