<svg viewBox="-61 90 422 142" version="1.1" xmlns="http://www.w3.org/2000/svg" xmlns:xlink="http://www.w3.org/1999/xlink">
                <path d="M-52.8407401,120.402801 L-52.8407401,94.7074991 L-61,94.7074991 L-61,173.304551 L-52.8048578,173.304551 L-52.8048578,120.748984 C-52.8118349,120.628404 -52.8407401,120.529217 -52.8407401,120.402801 L-52.8407401,120.402801 Z M-0.251089447,102.107637 L-21.1715279,127.237962 L-42.3391563,102.021092 L-42.3391563,117.593472 L-21.2961195,142.708237 L-0.251089447,117.619727 L-0.251089447,102.107637 L-0.251089447,102.107637 Z M175.646451,102.16501 L154.732988,127.292418 L133.561374,102.078465 L133.561374,117.651817 L154.602417,142.764638 L175.646451,117.680018 L175.646451,102.16501 L175.646451,102.16501 Z M10.2475041,94.7074991 L10.2475041,126.455162 C10.2475041,126.496976 10.235543,126.533928 10.2335498,126.574769 L10.2335498,173.304551 L18.428692,173.304551 L18.428692,94.7074991 L10.2475041,94.7074991 L10.2475041,94.7074991 Z M62.5780036,94.7074991 L70.770156,94.7074991 L70.770156,173.304551 L62.5780036,173.304551 L62.5780036,94.7074991 L62.5780036,94.7074991 Z M123.126571,94.7074991 L114.919468,94.7074991 L114.919468,173.305523 L123.11162,173.305523 L123.11162,105.032685 L123.126571,105.032685 L123.126571,94.7074991 L123.126571,94.7074991 Z M186.078263,94.7074991 L186.078263,105.032685 L186.153015,105.032685 L186.153015,173.305523 L194.340185,173.305523 L194.340185,94.7074991 L186.078263,94.7074991 L186.078263,94.7074991 Z M238.494483,94.7074991 L246.688626,94.7074991 L246.688626,173.304551 L238.494483,173.304551 L238.494483,94.7074991 L238.494483,94.7074991 Z M323.568673,177.792282 L304.117419,166.787373 L285.006051,155.665772 L285.059873,111.676279 L304.0616,100.685955 L324.091957,90 L343.600024,100.751108 L361,111.045176 L356.865548,117.697521 L339.518399,107.43457 L324.030159,98.8996143 L307.948863,107.479302 L293.025768,116.112472 L292.983906,151.25 L308.16017,160.082517 L323.558703,168.793481 L338.496749,160.30034 L356.741955,150.394268 L360.620245,157.191504 L342.442817,167.059651 L323.568673,177.792282 L323.568673,177.792282 Z" id="path-1" stroke="none" fill="#ffffff" fill-rule="evenodd"></path>
                <path d="M98.4175869,207.106783 C98.1836389,207.530336 97.8229745,207.742109 97.3355828,207.742109 C97.0431478,207.742109 96.7117265,207.636222 96.3413088,207.424446 C95.9708911,207.21267 95.5176237,206.976831 94.9814928,206.716924 C94.445362,206.457017 93.8068885,206.216366 93.0660532,205.994963 C92.3252178,205.773561 91.447926,205.662861 90.4341513,205.662861 C89.5568463,205.662861 88.7672837,205.773561 88.0654397,205.994963 C87.3635957,206.216366 86.7641129,206.519586 86.2669734,206.904634 C85.7698339,207.289682 85.3896741,207.737293 85.1264826,208.247482 C84.8632911,208.75767 84.7316973,209.311168 84.7316973,209.907992 C84.7316973,210.658835 84.9510203,211.284529 85.3896728,211.785091 C85.8283253,212.285653 86.4083127,212.718825 87.1296524,213.084621 C87.850992,213.450416 88.6697977,213.772889 89.5860941,214.052048 C90.5023904,214.331208 91.4430422,214.629616 92.4080777,214.94728 C93.3731132,215.264945 94.313765,215.616295 95.2300613,216.001343 C96.1463577,216.386391 96.9651634,216.867694 97.6865031,217.445265 C98.4078427,218.022837 98.9878301,218.730352 99.4264826,219.567831 C99.8651351,220.40531 100.084458,221.411232 100.084458,222.585628 C100.084458,223.933295 99.8407659,225.179869 99.3533742,226.325386 C98.8659826,227.470903 98.1446537,228.462387 97.1893661,229.299866 C96.2340784,230.137345 95.0643559,230.796729 93.6801636,231.278039 C92.2959713,231.759349 90.6973506,232 88.8842536,232 C86.8177129,232 84.946157,231.667901 83.2695297,231.003694 C81.5929023,230.339486 80.16974,229.487581 79,228.447952 L80.2282209,226.484218 C80.3841862,226.233937 80.5693922,226.041415 80.7838446,225.906649 C80.9982969,225.771882 81.2809798,225.7045 81.6319018,225.7045 C81.9828238,225.7045 82.353236,225.839264 82.7431493,226.108798 C83.1330626,226.378331 83.6058254,226.676739 84.1614519,227.00403 C84.7170784,227.33132 85.3896689,227.629728 86.1792434,227.899261 C86.9688179,228.168795 87.9582081,228.303559 89.1474438,228.303559 C90.1612184,228.303559 91.048258,228.173608 91.808589,227.9137 C92.56892,227.653793 93.2025196,227.302442 93.709407,226.859637 C94.2162943,226.416832 94.5915802,225.906652 94.8352761,225.32908 C95.0789719,224.751508 95.200818,224.135441 95.200818,223.48086 C95.200818,222.672259 94.981495,222.003249 94.5428425,221.473808 C94.10419,220.944367 93.5242027,220.491943 92.802863,220.116521 C92.0815233,219.7411 91.2578438,219.413814 90.3317996,219.134654 C89.4057554,218.855494 88.4602298,218.5619 87.4951943,218.253862 C86.5301588,217.945823 85.5846331,217.594473 84.658589,217.199799 C83.7325448,216.805125 82.9088652,216.309383 82.1875256,215.712559 C81.4661859,215.115735 80.8861985,214.379342 80.447546,213.503358 C80.0088935,212.627374 79.7895706,211.563696 79.7895706,210.31229 C79.7895706,209.195651 80.023515,208.122347 80.491411,207.092344 C80.959307,206.062341 81.6416451,205.157492 82.5384458,204.37777 C83.4352465,203.598048 84.5367351,202.977168 85.8429448,202.515111 C87.1491545,202.053053 88.6405506,201.822028 90.3171779,201.822028 C92.2667446,201.822028 94.0164544,202.125249 95.5663599,202.731699 C97.1162654,203.338149 98.4565724,204.170803 99.5873211,205.229684 L98.4175869,207.106783 Z M118.829448,201.822028 C120.993467,201.822028 122.947878,202.178192 124.69274,202.890531 C126.437602,203.602869 127.919251,204.613604 129.13773,205.922767 C130.356209,207.23193 131.291987,208.815415 131.945092,210.673271 C132.598197,212.531126 132.924744,214.60554 132.924744,216.896575 C132.924744,219.206862 132.598197,221.286089 131.945092,223.134318 C131.291987,224.982548 130.356209,226.56122 129.13773,227.870383 C127.919251,229.179545 126.437602,230.185468 124.69274,230.88818 C122.947878,231.590892 120.993467,231.942243 118.829448,231.942243 C116.665429,231.942243 114.711018,231.590892 112.966155,230.88818 C111.221293,230.185468 109.734771,229.179545 108.506544,227.870383 C107.278317,226.56122 106.332791,224.982548 105.669939,223.134318 C105.007086,221.286089 104.675665,219.206862 104.675665,216.896575 C104.675665,214.60554 105.007086,212.531126 105.669939,210.673271 C106.332791,208.815415 107.278317,207.23193 108.506544,205.922767 C109.734771,204.613604 111.221293,203.602869 112.966155,202.890531 C114.711018,202.178192 116.665429,201.822028 118.829448,201.822028 L118.829448,201.822028 Z M118.829448,227.92814 C121.753798,227.92814 123.93728,226.960722 125.379959,225.025856 C126.822638,223.090991 127.543967,220.390884 127.543967,216.925453 C127.543967,213.440771 126.822638,210.726224 125.379959,208.781733 C123.93728,206.837241 121.753798,205.86501 118.829448,205.86501 C117.347777,205.86501 116.061082,206.115287 114.969325,206.61585 C113.877568,207.116412 112.966159,207.838366 112.235072,208.781733 C111.503984,209.7251 110.958114,210.885039 110.597444,212.261585 C110.236774,213.638131 110.056442,215.192738 110.056442,216.925453 C110.056442,218.658169 110.236774,220.207963 110.597444,221.574882 C110.958114,222.941802 111.503984,224.092115 112.235072,225.025856 C112.966159,225.959597 113.877568,226.676738 114.969325,227.1773 C116.061082,227.677862 117.347777,227.92814 118.829448,227.92814 L118.829448,227.92814 Z M159.56544,207.482203 C159.409474,207.693979 159.253511,207.857622 159.097546,207.973136 C158.941581,208.088651 158.717384,208.146407 158.424949,208.146407 C158.132514,208.146407 157.815714,208.026081 157.47454,207.785426 C157.133366,207.544772 156.699594,207.280055 156.173211,206.991269 C155.646828,206.702483 155.008354,206.437767 154.257771,206.197112 C153.507188,205.956457 152.586031,205.836132 151.494274,205.836132 C150.051595,205.836132 148.774648,206.091222 147.663395,206.60141 C146.552142,207.111599 145.621238,207.847992 144.870654,208.810611 C144.120071,209.773231 143.554705,210.937983 143.17454,212.304903 C142.794374,213.671822 142.604294,215.202364 142.604294,216.896575 C142.604294,218.667795 142.808996,220.241654 143.218405,221.6182 C143.627814,222.994746 144.202927,224.149872 144.943763,225.083613 C145.684598,226.017354 146.586259,226.729682 147.648773,227.220618 C148.711287,227.711554 149.905379,227.957018 151.231084,227.957018 C152.498302,227.957018 153.541305,227.807814 154.360123,227.509402 C155.178941,227.21099 155.861279,226.878891 156.407157,226.513096 C156.953036,226.147301 157.40143,225.815202 157.752352,225.51679 C158.103274,225.218378 158.45419,225.069174 158.805112,225.069174 C159.253513,225.069174 159.584934,225.232817 159.799387,225.560107 L161.261554,227.437206 C159.97484,228.99665 158.366472,230.137337 156.436401,230.859302 C154.50633,231.581266 152.469063,231.942243 150.32454,231.942243 C148.472452,231.942243 146.751985,231.605331 145.163088,230.931498 C143.574191,230.257664 142.194893,229.28062 141.025153,228.000336 C139.855413,226.720052 138.934257,225.146192 138.261656,223.278711 C137.589056,221.411229 137.252761,219.283871 137.252761,216.896575 C137.252761,214.721055 137.559813,212.70921 138.173926,210.860981 C138.78804,209.012751 139.684827,207.41964 140.864315,206.081598 C142.043803,204.743557 143.501082,203.699131 145.236196,202.948287 C146.971311,202.197444 148.959839,201.822028 151.20184,201.822028 C153.268381,201.822028 155.100946,202.154127 156.699591,202.818334 C158.298236,203.482542 159.71165,204.421082 160.939877,205.633983 L159.56544,207.482203 Z M172.461759,202.284083 L172.461759,231.537945 L167.256442,231.537945 L167.256442,202.284083 L172.461759,202.284083 Z M173.631493,193.100739 C173.631493,193.601301 173.529142,194.068164 173.324438,194.501343 C173.119733,194.934522 172.846798,195.319564 172.505624,195.656481 C172.16445,195.993398 171.769668,196.258114 171.321268,196.450638 C170.872868,196.643162 170.395231,196.739422 169.888344,196.739422 C169.381456,196.739422 168.908693,196.643162 168.470041,196.450638 C168.031388,196.258114 167.641481,195.993398 167.300307,195.656481 C166.959133,195.319564 166.691071,194.934522 166.496115,194.501343 C166.301158,194.068164 166.203681,193.601301 166.203681,193.100739 C166.203681,192.600177 166.301158,192.123687 166.496115,191.671256 C166.691071,191.218825 166.959133,190.824157 167.300307,190.48724 C167.641481,190.150323 168.031388,189.885607 168.470041,189.693083 C168.908693,189.500559 169.381456,189.404298 169.888344,189.404298 C170.395231,189.404298 170.872868,189.500559 171.321268,189.693083 C171.769668,189.885607 172.16445,190.150323 172.505624,190.48724 C172.846798,190.824157 173.119733,191.218825 173.324438,191.671256 C173.529142,192.123687 173.631493,192.600177 173.631493,193.100739 L173.631493,193.100739 Z M203.401227,231.537945 L201.091002,231.537945 C200.584115,231.537945 200.174712,231.460937 199.862781,231.306917 C199.550851,231.152898 199.346149,230.825613 199.248671,230.32505 L198.663804,227.610477 C197.883977,228.303563 197.123657,228.924443 196.382822,229.473136 C195.641987,230.021829 194.862172,230.48388 194.043354,230.859302 C193.224536,231.234723 192.352118,231.518692 191.426074,231.711216 C190.500029,231.903739 189.471648,232 188.3409,232 C187.190655,232 186.113536,231.84117 185.109509,231.523506 C184.105482,231.205841 183.233064,230.729352 182.492229,230.094023 C181.751394,229.458694 181.161659,228.654919 180.723006,227.682673 C180.284354,226.710427 180.065031,225.560114 180.065031,224.231699 C180.065031,223.076556 180.386704,221.964747 181.030061,220.896239 C181.673418,219.827731 182.711547,218.879565 184.144479,218.051713 C185.57741,217.22386 187.45384,216.545223 189.773824,216.015782 C192.093808,215.486342 194.930385,215.183121 198.28364,215.106111 L198.28364,212.824715 C198.28364,210.552932 197.791382,208.834682 196.806851,207.669913 C195.82232,206.505143 194.36504,205.922767 192.434969,205.922767 C191.167751,205.922767 190.100379,206.081597 189.232822,206.399261 C188.365265,206.716926 187.614693,207.07309 186.981084,207.467764 C186.347475,207.862438 185.801604,208.218602 185.343456,208.536266 C184.885308,208.85393 184.43204,209.01276 183.98364,209.01276 C183.632718,209.01276 183.325666,208.921313 183.062474,208.738415 C182.799283,208.555517 182.589708,208.329305 182.433742,208.059772 L181.497955,206.4137 C183.135591,204.854257 184.899922,203.689505 186.791002,202.919409 C188.682082,202.149313 190.777834,201.764271 193.078323,201.764271 C194.735455,201.764271 196.207356,202.033801 197.49407,202.572868 C198.780784,203.111935 199.862777,203.862767 200.740082,204.825386 C201.617387,205.788006 202.28023,206.952758 202.72863,208.319678 C203.17703,209.686597 203.401227,211.188261 203.401227,212.824715 L203.401227,231.537945 Z M189.890798,228.390195 C190.807094,228.390195 191.645395,228.298747 192.405726,228.11585 C193.166057,227.932952 193.882512,227.673048 194.555112,227.336132 C195.227713,226.999215 195.87106,226.590108 196.485174,226.108798 C197.099287,225.627488 197.69877,225.078803 198.28364,224.462727 L198.28364,218.369375 C195.885673,218.446385 193.848406,218.634093 192.171779,218.932505 C190.495152,219.230917 189.130476,219.620772 188.07771,220.102082 C187.024944,220.583392 186.25975,221.151329 185.782106,221.80591 C185.304463,222.460491 185.065644,223.192071 185.065644,224.000672 C185.065644,224.770767 185.192364,225.434965 185.445808,225.993284 C185.699251,226.551603 186.04042,227.008841 186.469325,227.36501 C186.89823,227.721179 187.40511,227.981083 187.98998,228.144728 C188.57485,228.308373 189.208449,228.390195 189.890798,228.390195 L189.890798,228.390195 Z M217.087117,189 L217.087117,231.537945 L211.8818,231.537945 L211.8818,189 L217.087117,189 Z" id="social" stroke="none" fill="#ffffff" fill-rule="evenodd"></path>
              </svg>
