<?xml version="1.0" encoding="utf-8"?>
<!-- Generator: Adobe Illustrator 21.0.2, SVG Export Plug-In . SVG Version: 6.00 Build 0)  -->
<svg version="1.1" id="svg2" xmlns="http://www.w3.org/2000/svg" xmlns:xlink="http://www.w3.org/1999/xlink" x="0px" y="0px"
	 viewBox="0 0 551 133.7" style="enable-background:new 0 0 551 133.7;" xml:space="preserve">
<style type="text/css">
	.st0{fill:#FFFFFF;}
</style>
<title>stukent</title>
<g id="g10">
	<g id="g12">
		<path id="path14" class="st0" d="M267.9,85v22.5h-17.3V9.3h17.3v62.3h15.6l15.6-21.9h17.5l-17.9,28.8l29.7,47.8h-17.5L283.6,85
			H267.9"/>
		<path id="path16" class="st0" d="M103.3,62.9h23.8v44.5h17.3V62.9h24.8V49.8h-65.9V62.9"/>
		<path id="path18" class="st0" d="M225.5,85.2c0,3.1-0.7,5.4-2,7s-4.2,2.2-8.8,2.2H205c-4.2,0-7-0.8-8.4-2.3
			c-1.5-1.6-2.2-3.8-2.2-6.8V49.8h-17.4v41c0.1,5.2,1.9,9.3,5.5,12.2c3.6,2.9,8.6,4.4,15,4.4h25.4c7.7,0,13-1.4,15.9-4.3
			s4.3-7,4.2-12.3v-41h-17.4V85.2"/>
		<path id="path20" class="st0" d="M332.7,50.8c-2.3,0.5-4.5,1.6-6.3,3.1c-1.6,1.4-2.8,3.2-3.4,5.2c-0.7,2.4-1.1,4.8-1,7.3v24.4
			c0,2.5,0.3,4.9,1,7.3c0.6,2,1.8,3.8,3.4,5.2c1.8,1.5,4,2.5,6.3,3.1c3.2,0.8,6.4,1.1,9.7,1h45.5V94.3H350c-1.8,0-3.5-0.2-5.2-0.6
			c-1.2-0.3-2.3-0.9-3.3-1.8c-0.8-0.8-1.4-1.8-1.7-2.9c-0.4-1.3-0.5-2.6-0.5-4h48.6V71.9h-48.6c0-1.3,0.2-2.5,0.5-3.7
			c0.3-1.1,0.9-2.1,1.7-2.8c0.9-0.9,2.1-1.5,3.3-1.8c1.7-0.4,3.5-0.6,5.2-0.6h37.9V49.8h-45.5C339.1,49.7,335.8,50.1,332.7,50.8"/>
		<path id="path22" class="st0" d="M441.4,49.8H416c-6.4,0-11.4,1.5-15,4.4c-3.6,2.9-5.4,7-5.5,12.2v41.1H413V72.1
			c0-3,0.7-5.3,2.2-6.8c1.5-1.5,4.3-2.3,8.4-2.3h9.7c4.6,0,7.6,0.7,8.8,2.2s2,3.8,2,7v35.4h17.4V66.4c0-5.4-1.4-9.5-4.3-12.3
			C454.4,51.2,449.1,49.8,441.4,49.8"/>
		<path id="path24" class="st0" d="M88.8,82.6L45.7,66.3c-0.3,0-0.4-0.4-0.5-1.2c0.1-1.2,0.7-1.8,1.8-1.8h48.6V49.8H47
			c-4.9,0-9.1,0.7-12.6,2.5c-7.6,3.9-7.8,12-7.8,14.4c0,5.1,2.4,8.5,7.2,10.1l38.9,14.4c0.4,0.1,0.8,0.7,1.1,1.7
			c0.1,0.2,0.1,0.3,0.1,0.5c0,0.6-0.6,0.9-1.8,0.9H8.8c1.5,4.6,3.5,9,5.9,13.1h66.8c4.2,0,7.5-1.1,9.7-3.4c2.3-2.3,3.8-4.8,4.4-7.3
			c0.1-0.3,0.1-0.5,0.1-0.8v-0.9c0-2.2-0.4-4.3-1.2-6.4C93.8,85.9,91.7,83.6,88.8,82.6"/>
		<path id="path26" class="st0" d="M544.4,63c-0.8-4.5-2.2-8.9-4-13.1h-77.1l5,13.1h24.7v44.5h17.3V63L544.4,63"/>
	</g>
</g>
</svg>
