<?xml version="1.0" encoding="utf-8"?>
<!-- Generator: Adobe Illustrator 21.0.2, SVG Export Plug-In . SVG Version: 6.00 Build 0)  -->
<svg version="1.1" id="Layer_1" xmlns="http://www.w3.org/2000/svg" xmlns:xlink="http://www.w3.org/1999/xlink" x="0px" y="0px"
	 viewBox="0 0 492 513" style="enable-background:new 0 0 492 513;" xml:space="preserve">
<style type="text/css">
	.st0{fill:none;stroke:#000000;stroke-width:8;stroke-miterlimit:10;}
	.st1{font-family:'Sansation-Light';}
	.st2{font-size:34.0159px;}
	.st3{fill:none;stroke:#000000;stroke-miterlimit:10;}
	.st4{fill:none;stroke:#000000;stroke-width:13;stroke-miterlimit:10;}
</style>
<path d="M44.3,388.9v-26.4h-8.2v80.8h8.2v-54C44.3,389.1,44.3,389,44.3,388.9"/>
<polygon points="97.1,361.1 76.1,386.9 54.8,361 54.8,377 75.9,402.8 97.1,377 "/>
<polygon points="273.5,361.1 252.6,387 231.3,361 231.3,377 252.4,402.9 273.5,377.1 "/>
<path d="M107.6,362.4V395v0.1v48.1h8.2v-80.8L107.6,362.4L107.6,362.4z"/>
<rect x="160.1" y="362.4" width="8.2" height="80.8"/>
<polygon points="220.8,362.4 212.6,362.4 212.6,443.3 220.8,443.3 220.8,373.1 220.8,373.1 "/>
<polygon points="284,362.4 284,373.1 284.1,373.1 284.1,443.3 292.3,443.3 292.3,362.4 "/>
<rect x="336.6" y="362.4" width="8.2" height="80.8"/>
<polyline class="st0" points="457.2,423.2 438.9,433.4 421.9,443.3 404.4,433.1 387.3,422.9 387.3,401.9 387.3,382.2 404.3,372.1 
	422.4,362.2 440,372.1 457.4,382.7 "/>
<text transform="matrix(1 0 0 1 227.8458 479.6373)" class="st1 st2">pro</text>
<line class="st3" x1="209.6" y1="469.6" x2="36.1" y2="469.6"/>
<line class="st3" x1="458.9" y1="469.6" x2="298.8" y2="469.6"/>
<polygon points="281.3,127.6 252.5,163.1 223.4,127.5 223.4,149.5 252.4,184.2 281.3,149.5 "/>
<path d="M293.2,126.8v44.8c0,0.1,0,0.1,0,0.2v65.9h11.3V126.8H293.2z"/>
<path d="M200.3,126.8v44.8c0,0.1,0,0.1,0,0.2v65.9h11.3V126.8H200.3z"/>
<polygon class="st4" points="387.3,260.2 252.4,338.1 117.4,260.2 117.4,104.3 252.4,26.4 387.3,104.3 "/>
</svg>
