<?xml version="1.0" encoding="utf-8"?>
<!-- Generator: Adobe Illustrator 21.0.2, SVG Export Plug-In . SVG Version: 6.00 Build 0)  -->
<svg version="1.1" id="Layer_1" xmlns="http://www.w3.org/2000/svg" xmlns:xlink="http://www.w3.org/1999/xlink" x="0px" y="0px"
	 viewBox="0 0 451 144" style="enable-background:new 0 0 451 144;" xml:space="preserve">
<style type="text/css">
	.st0{font-family:'Sansation-Light';}
	.st1{font-size:33px;}
	.st2{fill:none;stroke:#000000;stroke-width:2;}
</style>
<g>
	<path d="M23,41.6V15.2h-8.2V96H23V42C23,41.9,23,41.8,23,41.6"/>
	<polygon points="75.8,13.8 54.8,39.6 33.5,13.7 33.5,29.7 54.6,55.6 75.8,29.8 	"/>
	<path d="M86.3,15.2v32.6c0,0,0,0.1,0,0.1V96h8.2V15.2H86.3z"/>
</g>
<rect x="138.8" y="15.2" width="8.2" height="80.8"/>
<g>
	<polygon points="252.2,13.9 231.3,39.7 210,13.8 210,29.8 231.1,55.6 252.2,29.8 	"/>
	<polygon points="199.5,15.2 191.3,15.2 191.3,96 199.5,96 199.5,25.8 199.5,25.8 	"/>
	<polygon points="262.7,15.2 262.7,25.8 262.8,25.8 262.8,96 271,96 271,15.2 	"/>
</g>
<rect x="315.3" y="15.2" width="8.2" height="80.8"/>
<g>
	<polygon points="400.6,100.6 381.1,89.3 362,77.9 362,32.6 381.1,21.3 401.2,10.4 420.7,21.4 438.2,32 434.1,38.8 416.6,28.3 
		401.1,19.5 385,28.3 370,37.2 370,73.3 385.2,82.4 400.6,91.4 415.6,82.6 433.9,72.5 437.8,79.5 419.6,89.6 	"/>
</g>
<text transform="matrix(1 0 0 1 187.318 132.3925)" class="st0 st1">social</text>
<line class="st2" x1="178.3" y1="122.4" x2="14.5" y2="122.4"/>
<line class="st2" x1="437.5" y1="122.4" x2="283.5" y2="122.4"/>
</svg>
