<?xml version="1.0" encoding="utf-8"?>
<!-- Generator: Adobe Illustrator 21.0.2, SVG Export Plug-In . SVG Version: 6.00 Build 0)  -->
<svg version="1.1" id="Layer_1" xmlns="http://www.w3.org/2000/svg" xmlns:xlink="http://www.w3.org/1999/xlink" x="0px" y="0px"
	 viewBox="0 0 492 513" style="enable-background:new 0 0 492 513;" xml:space="preserve">
<style type="text/css">
	.st0{fill:none;stroke:#000000;stroke-width:8;stroke-miterlimit:10;}
	.st1{font-family:'Sansation-Light';}
	.st2{font-size:34.0159px;}
	.st3{fill:none;stroke:#000000;}
	.st4{fill:none;stroke:#000000;stroke-width:13;stroke-miterlimit:10;}
</style>
<path d="M45.8,392.8v-26.4h-8.2v80.8h8.2v-54C45.8,393.1,45.8,393,45.8,392.8"/>
<polygon points="98.6,365 77.6,390.9 56.3,364.9 56.3,380.9 77.4,406.8 98.6,381 "/>
<polygon points="275,365.1 254,390.9 232.8,365 232.8,381 253.9,406.8 275,381 "/>
<path d="M109.1,366.4v32.6c0,0,0,0.1,0,0.1v48.1h8.2v-80.8H109.1z"/>
<rect x="161.6" y="366.4" width="8.2" height="80.8"/>
<polygon points="222.3,366.4 214.1,366.4 214.1,447.2 222.3,447.2 222.3,377 222.3,377 "/>
<polygon points="285.5,366.4 285.5,377 285.6,377 285.6,447.2 293.8,447.2 293.8,366.4 "/>
<rect x="338.1" y="366.4" width="8.2" height="80.8"/>
<polyline class="st0" points="458.7,427.2 440.4,437.3 423.4,447.2 405.9,437.1 388.8,426.8 388.8,405.8 388.8,386.1 405.8,376.1 
	423.9,366.1 441.5,376 458.9,386.6 "/>
<text transform="matrix(1 0 0 1 221.3391 483.6048)" class="st1 st2">intro</text>
<line class="st3" x1="211.1" y1="473.6" x2="37.6" y2="473.6"/>
<line class="st3" x1="460.4" y1="473.6" x2="300.3" y2="473.6"/>
<g>
	<polygon points="282.8,131.6 254,167.1 224.9,131.5 224.9,153.5 253.9,188.2 282.8,153.5 	"/>
	<path d="M294.7,130.7v44.8c0,0.1,0,0.1,0,0.2v65.9h11.3V130.7H294.7z"/>
	<path d="M201.8,130.7v44.8c0,0.1,0,0.1,0,0.2v65.9H213V130.7H201.8z"/>
</g>
<polygon class="st4" points="388.8,264.1 253.9,342 118.9,264.1 118.9,108.3 253.9,30.3 388.8,108.3 "/>
</svg>
