<?xml version="1.0" encoding="utf-8"?>
<!-- Generator: Adobe Illustrator 21.0.2, SVG Export Plug-In . SVG Version: 6.00 Build 0)  -->
<svg version="1.1" id="Layer_1" xmlns="http://www.w3.org/2000/svg" xmlns:xlink="http://www.w3.org/1999/xlink" x="0px" y="0px"
	 viewBox="0 0 469 159" style="enable-background:new 0 0 469 159;" xml:space="preserve">
<style type="text/css">
	.st0{fill:none;stroke:#000000;stroke-width:8;stroke-miterlimit:10;}
	.st1{font-family:'Sansation-Light';}
	.st2{font-size:34.0159px;}
	.st3{fill:none;stroke:#000000;stroke-width:2;}
</style>
<path d="M34.8,54.5V28.1h-8.2v80.8h8.2v-54C34.8,54.7,34.8,54.6,34.8,54.5"/>
<polygon points="87.6,26.7 66.6,52.5 45.3,26.6 45.3,42.6 66.4,68.4 87.6,42.6 "/>
<polygon points="264,26.7 243,52.6 221.8,26.6 221.8,42.7 242.9,68.5 264,42.7 "/>
<path d="M98.1,28.1v32.6c0,0,0,0.1,0,0.1v48.1h8.2V28.1H98.1z"/>
<rect x="150.6" y="28.1" width="8.2" height="80.8"/>
<polygon points="211.3,28.1 203.1,28.1 203.1,108.9 211.3,108.9 211.3,38.7 211.3,38.7 "/>
<polygon points="274.5,28.1 274.5,38.7 274.6,38.7 274.6,108.9 282.8,108.9 282.8,28.1 "/>
<rect x="327.1" y="28.1" width="8.2" height="80.8"/>
<polyline class="st0" points="447.7,88.8 429.4,99 412.4,108.9 394.9,98.7 377.8,88.5 377.8,67.5 377.8,47.8 394.8,37.7 412.9,27.8 
	430.5,37.7 447.9,48.3 "/>
<text transform="matrix(1 0 0 1 210.3391 145.2525)" class="st1 st2">intro</text>
<line class="st3" x1="200.1" y1="135.2" x2="26.6" y2="135.2"/>
<line class="st3" x1="449.4" y1="135.2" x2="289.3" y2="135.2"/>
</svg>
