<?xml version="1.0" encoding="utf-8"?>
<!-- Generator: Adobe Illustrator 21.0.2, SVG Export Plug-In . SVG Version: 6.00 Build 0)  -->
<svg version="1.1" id="Layer_1" xmlns="http://www.w3.org/2000/svg" xmlns:xlink="http://www.w3.org/1999/xlink" x="0px" y="0px"
	 viewBox="0 0 660 212" style="enable-background:new 0 0 660 212;" xml:space="preserve">
<style type="text/css">
	.st0{fill:#354856;}
	.st1{fill:none;stroke:#354856;stroke-width:8;stroke-miterlimit:10;}
	.st2{fill:none;stroke:#354856;}
	.st3{fill:#FFFFFF;}
	.st4{font-family:'Sansation-Light';}
	.st5{font-size:48.0943px;}
	.st6{fill:none;stroke:#FFFFFF;stroke-width:2;}
</style>
<path class="st0" d="M-1016.6,1285.7v-26.4h-8.2v80.8h8.2v-54C-1016.5,1285.9-1016.6,1285.8-1016.6,1285.7"/>
<polygon class="st0" points="-963.8,1257.9 -984.8,1283.7 -1006,1257.8 -1006,1273.8 -984.9,1299.6 -963.8,1273.8 "/>
<polygon class="st0" points="-787.3,1257.9 -808.3,1283.8 -829.6,1257.8 -829.6,1273.8 -808.5,1299.7 -787.3,1273.9 "/>
<path class="st0" d="M-953.3,1259.2v32.6c0,0,0,0.1,0,0.1v48.1h8.2v-80.8H-953.3z"/>
<rect x="-900.8" y="1259.2" class="st0" width="8.2" height="80.8"/>
<polygon class="st0" points="-840,1259.2 -848.3,1259.2 -848.3,1340.1 -840,1340.1 -840,1269.9 -840,1269.9 "/>
<polygon class="st0" points="-776.9,1259.2 -776.9,1269.9 -776.8,1269.9 -776.8,1340.1 -768.6,1340.1 -768.6,1259.2 "/>
<rect x="-724.3" y="1259.2" class="st0" width="8.2" height="80.8"/>
<polyline class="st1" points="-603.7,1320 -621.9,1330.2 -638.9,1340.1 -656.4,1329.9 -673.6,1319.7 -673.6,1298.7 -673.6,1279 
	-656.6,1268.9 -638.4,1259 -620.9,1268.9 -603.5,1279.5 "/>
<text transform="matrix(1 0 0 1 -833.0303 1376.438)" class="st0 st4" style="font-size:34.0159px;">pro</text>
<line class="st2" x1="-851.3" y1="1366.4" x2="-1024.8" y2="1366.4"/>
<line class="st2" x1="-602" y1="1366.4" x2="-762.1" y2="1366.4"/>
<g>
	<path class="st3" d="M33.9,62.9V24.4H22v117.8h12V63.4C33.9,63.2,33.9,63.1,33.9,62.9"/>
	<polygon class="st3" points="110.8,22.4 80.2,60 49.2,22.2 49.2,45.6 80,83.2 110.8,45.6 	"/>
	<path class="st3" d="M126.1,24.4V72c0,0.1,0,0.1,0,0.2v70h12V24.4H126.1z"/>
</g>
<rect x="202.7" y="24.4" class="st3" width="12" height="117.8"/>
<g>
	<polygon class="st3" points="368,22.5 337.4,60.1 306.4,22.3 306.4,45.7 337.2,83.3 368,45.7 	"/>
	<polygon class="st3" points="291.2,24.4 279.2,24.4 279.2,142.2 291.2,142.2 291.2,39.9 291.2,39.9 	"/>
	<polygon class="st3" points="383.2,24.4 383.2,39.9 383.3,39.9 383.3,142.2 395.3,142.2 395.3,24.4 	"/>
</g>
<rect x="459.9" y="24.4" class="st3" width="12" height="117.8"/>
<g>
	<polygon class="st3" points="584.3,148.9 555.8,132.4 527.9,115.8 528,49.8 555.7,33.4 585,17.3 613.6,33.5 639,48.9 633,58.8 
		607.6,43.5 584.9,30.7 561.4,43.5 539.6,56.5 539.5,109.1 561.7,122.4 584.3,135.4 606.1,122.7 632.8,107.9 638.4,118 611.9,132.8 
			"/>
</g>
<text transform="matrix(1 0 0 1 273.3652 195.1938)" class="st3 st4 st5">social</text>
<line class="st6" x1="260.2" y1="180.6" x2="21.5" y2="180.6"/>
<line class="st6" x1="638" y1="180.6" x2="413.5" y2="180.6"/>
</svg>
