<?xml version="1.0" encoding="utf-8"?>
<!-- Generator: Adobe Illustrator 21.0.2, SVG Export Plug-In . SVG Version: 6.00 Build 0)  -->
<svg version="1.1" id="Layer_1" xmlns="http://www.w3.org/2000/svg" xmlns:xlink="http://www.w3.org/1999/xlink" x="0px" y="0px"
	 viewBox="0 0 508 515" style="enable-background:new 0 0 508 515;" xml:space="preserve">
<style type="text/css">
	.st0{fill:#FFFFFF;}
	.st1{fill:#A89A33;}
	.st2{fill:#AA6831;}
	.st3{fill:#352010;}
	.st4{fill:#84761F;}
</style>
<g>
	<circle class="st0" cx="253.5" cy="257.5" r="247.5"/>
	<g>
		<path class="st1" d="M116.4,357.6c0,0,21.3,100.4,141.2,112.3c0,0,92.7,0.9,130.1-112.3H116.4z"/>
		<circle class="st2" cx="251.3" cy="274.7" r="153.5"/>
		<path class="st2" d="M199,150.5c0,0-43.9-80.7-104.2-58.2c0,0-60.3,35.8,15.3,131.8L199,150.5z"/>
		<path class="st2" d="M306.7,150.5c0,0,43.9-80.7,104.2-58.2c0,0,60.3,35.8-15.3,131.8L306.7,150.5z"/>
		<path class="st1" d="M103.6,317.1c0,0,40-156.8,148-139.8c0,0,101.3-24.1,147.2,139.8c0,0,42.3-150.4-109-191
			c0,0-75.8-24.8-139.1,31.5C150.8,157.6,75.5,215.2,103.6,317.1z"/>
		<path class="st2" d="M103.7,316.8c0,0-16.2,15.3-17,33.2c0,0-3.4,9.4,28.1,0l27.2-0.9L103.7,316.8z"/>
		<path class="st2" d="M119,338.9c0,0-16.2,15.3-17,33.2c0,0-3.4,9.4,28.1,0l27.2-0.9L119,338.9z"/>
		<path class="st2" d="M141.1,354.2c0,0-16.2,15.3-17,33.2c0,0-3.4,9.4,28.1,0l27.2-0.9L141.1,354.2z"/>
		<path class="st2" d="M399.6,316.8c0,0,16.2,15.3,17,33.2c0,0,3.4,9.4-28.1,0l-27.2-0.9L399.6,316.8z"/>
		<path class="st2" d="M384.3,338.9c0,0,16.2,15.3,17,33.2c0,0,3.4,9.4-28.1,0l-27.2-0.9L384.3,338.9z"/>
		<path class="st2" d="M362.2,354.2c0,0,16.2,15.3,17,33.2c0,0,3.4,9.4-28.1,0l-27.2-0.9L362.2,354.2z"/>
		<path class="st2" d="M102,205.4c0,0-19.6,4.3-12.8,13.6c0,0,3.2,9.4,16.9,0L102,205.4z"/>
		<path class="st2" d="M401.6,208.8c0,0,19.6,4.3,12.8,13.6c0,0-3.2,9.4-16.9,0L401.6,208.8z"/>
		<path class="st3" d="M389,199.1c0,0,17.5-12.4,8.1-25.2c0,0-15.3-16.2,4.3-17.9c0,0-11.1-9.4,0-11.9c0,0,9.4-29.8-22.1-23
			c0,0-29.1,8.8-33.3,29.9C346,151.1,373.2,167.3,389,199.1z"/>
		<path class="st3" d="M117.3,198.2c0,0-17.5-12.4-8.1-25.2c0,0,15.3-16.2-4.3-17.9c0,0,11.1-9.4,0-11.9c0,0-9.4-29.8,22.1-23
			c0,0,29.1,8.8,33.3,29.9C160.3,150.2,133.1,166.4,117.3,198.2z"/>
		<circle class="st3" cx="182.8" cy="264.1" r="22.1"/>
		<ellipse class="st3" cx="255.1" cy="316.8" rx="14.5" ry="5.1"/>
		<circle class="st3" cx="329.1" cy="264.1" r="22.1"/>
		<path class="st3" d="M238.9,357.7c0,0,15.1,29.9,33.2,0C272.1,357.7,256.4,393.5,238.9,357.7z"/>
		<path class="st4" d="M151.9,399.7c0,0,53.6,49.9,118.2,44.3C270.1,444,163,457,151.9,399.7z"/>
		<path class="st4" d="M262.7,451.4c0,0,24,7.4,61-24C323.7,427.4,279.4,482.8,262.7,451.4z"/>
		<path class="st4" d="M103.9,300c0,0-9.2-51.7,11.1-44.3C115,255.7,107.6,246.4,103.9,300z"/>
	</g>
</g>
</svg>
